<?xml version="1.0" encoding="UTF-8" standalone="no"?>
<!DOCTYPE svg PUBLIC "-//W3C//DTD SVG 1.1//EN"
 "http://www.w3.org/Graphics/SVG/1.1/DTD/svg11.dtd">
<!-- Generated by graphviz version 2.47.3 (20210619.1520)
 -->
<!-- Title: dependencies Pages: 1 -->
<svg width="769pt" height="247pt"
 viewBox="0.00 0.00 769.00 246.80" xmlns="http://www.w3.org/2000/svg" xmlns:xlink="http://www.w3.org/1999/xlink">
<g id="graph0" class="graph" transform="scale(1 1) rotate(0) translate(4 242.8)">
<title>dependencies</title>
<polygon fill="white" stroke="transparent" points="-4,4 -4,-242.8 765,-242.8 765,4 -4,4"/>
<text text-anchor="middle" x="380.5" y="-8.2" font-family="sans-serif" font-size="14.00">dependencies</text>
<g id="clust1" class="cluster">
<title>cluster_SharedModule</title>
<polygon fill="none" stroke="black" stroke-dasharray="1,5" points="8,-32.8 8,-230.8 753,-230.8 753,-32.8 8,-32.8"/>
</g>
<g id="clust2" class="cluster">
<title>cluster_SharedModule_declarations</title>
<polygon fill="none" stroke="black" points="25,-40.8 25,-92.8 736,-92.8 736,-40.8 25,-40.8"/>
</g>
<g id="clust9" class="cluster">
<title>cluster_SharedModule_exports</title>
<polygon fill="none" stroke="black" points="16,-170.8 16,-222.8 745,-222.8 745,-170.8 16,-170.8"/>
</g>
<!-- AlertComponent -->
<g id="node1" class="node">
<title>AlertComponent</title>
<polygon fill="#ffffb3" stroke="black" points="728.1,-84.8 617.9,-84.8 617.9,-48.8 728.1,-48.8 728.1,-84.8"/>
<text text-anchor="middle" x="673" y="-62.6" font-family="Times,serif" font-size="14.00">AlertComponent</text>
</g>
<!-- SharedModule -->
<g id="node6" class="node">
<title>SharedModule</title>
<polygon fill="#8dd3c7" stroke="black" points="475.42,-149.8 472.42,-153.8 451.42,-153.8 448.42,-149.8 376.58,-149.8 376.58,-113.8 475.42,-113.8 475.42,-149.8"/>
<text text-anchor="middle" x="426" y="-127.6" font-family="Times,serif" font-size="14.00">SharedModule</text>
</g>
<!-- AlertComponent&#45;&gt;SharedModule -->
<g id="edge1" class="edge">
<title>AlertComponent&#45;&gt;SharedModule</title>
<path fill="none" stroke="black" d="M693.1,-85.07C693.1,-103.36 693.1,-128.8 693.1,-128.8 693.1,-128.8 485.3,-128.8 485.3,-128.8"/>
<polygon fill="black" stroke="black" points="485.3,-125.3 475.3,-128.8 485.3,-132.3 485.3,-125.3"/>
</g>
<!-- BytesPipe -->
<g id="node2" class="node">
<title>BytesPipe</title>
<polygon fill="#ffffb3" stroke="black" points="600.27,-84.8 527.73,-84.8 527.73,-48.8 600.27,-48.8 600.27,-84.8"/>
<text text-anchor="middle" x="564" y="-62.6" font-family="Times,serif" font-size="14.00">BytesPipe</text>
</g>
<!-- BytesPipe&#45;&gt;SharedModule -->
<g id="edge2" class="edge">
<title>BytesPipe&#45;&gt;SharedModule</title>
<path fill="none" stroke="black" d="M576.55,-84.81C576.55,-100.85 576.55,-121.8 576.55,-121.8 576.55,-121.8 485.29,-121.8 485.29,-121.8"/>
<polygon fill="black" stroke="black" points="485.29,-118.3 475.29,-121.8 485.29,-125.3 485.29,-118.3"/>
</g>
<!-- ConfirmDialogComponent -->
<g id="node3" class="node">
<title>ConfirmDialogComponent</title>
<polygon fill="#ffffb3" stroke="black" points="509.37,-84.8 342.63,-84.8 342.63,-48.8 509.37,-48.8 509.37,-84.8"/>
<text text-anchor="middle" x="426" y="-62.6" font-family="Times,serif" font-size="14.00">ConfirmDialogComponent</text>
</g>
<!-- ConfirmDialogComponent&#45;&gt;SharedModule -->
<g id="edge3" class="edge">
<title>ConfirmDialogComponent&#45;&gt;SharedModule</title>
<path fill="none" stroke="black" d="M426,-84.91C426,-84.91 426,-103.79 426,-103.79"/>
<polygon fill="black" stroke="black" points="422.5,-103.79 426,-113.79 429.5,-103.79 422.5,-103.79"/>
</g>
<!-- CustomtextPipe -->
<g id="node4" class="node">
<title>CustomtextPipe</title>
<polygon fill="#ffffb3" stroke="black" points="324.95,-84.8 219.05,-84.8 219.05,-48.8 324.95,-48.8 324.95,-84.8"/>
<text text-anchor="middle" x="272" y="-62.6" font-family="Times,serif" font-size="14.00">CustomtextPipe</text>
</g>
<!-- CustomtextPipe&#45;&gt;SharedModule -->
<g id="edge4" class="edge">
<title>CustomtextPipe&#45;&gt;SharedModule</title>
<path fill="none" stroke="black" d="M288.07,-84.81C288.07,-100.85 288.07,-121.8 288.07,-121.8 288.07,-121.8 366.6,-121.8 366.6,-121.8"/>
<polygon fill="black" stroke="black" points="366.6,-125.3 376.6,-121.8 366.6,-118.3 366.6,-125.3"/>
</g>
<!-- MessageDialogComponent -->
<g id="node5" class="node">
<title>MessageDialogComponent</title>
<polygon fill="#ffffb3" stroke="black" points="201.41,-84.8 32.59,-84.8 32.59,-48.8 201.41,-48.8 201.41,-84.8"/>
<text text-anchor="middle" x="117" y="-62.6" font-family="Times,serif" font-size="14.00">MessageDialogComponent</text>
</g>
<!-- MessageDialogComponent&#45;&gt;SharedModule -->
<g id="edge5" class="edge">
<title>MessageDialogComponent&#45;&gt;SharedModule</title>
<path fill="none" stroke="black" d="M141.57,-85.07C141.57,-103.36 141.57,-128.8 141.57,-128.8 141.57,-128.8 366.78,-128.8 366.78,-128.8"/>
<polygon fill="black" stroke="black" points="366.78,-132.3 376.78,-128.8 366.78,-125.3 366.78,-132.3"/>
</g>
<!-- AlertComponent  -->
<g id="node7" class="node">
<title>AlertComponent </title>
<polygon fill="#fb8072" stroke="black" points="736.6,-214.8 623.4,-214.8 623.4,-178.8 736.6,-178.8 736.6,-214.8"/>
<text text-anchor="middle" x="680" y="-192.6" font-family="Times,serif" font-size="14.00">AlertComponent </text>
</g>
<!-- SharedModule&#45;&gt;AlertComponent  -->
<g id="edge6" class="edge">
<title>SharedModule&#45;&gt;AlertComponent </title>
<path fill="none" stroke="black" stroke-dasharray="5,2" d="M475.23,-135.8C543.38,-135.8 658.15,-135.8 658.15,-135.8 658.15,-135.8 658.15,-168.5 658.15,-168.5"/>
<polygon fill="black" stroke="black" points="654.65,-168.5 658.15,-178.5 661.65,-168.5 654.65,-168.5"/>
</g>
<!-- BytesPipe  -->
<g id="node8" class="node">
<title>BytesPipe </title>
<polygon fill="#fb8072" stroke="black" points="605.27,-214.8 528.73,-214.8 528.73,-178.8 605.27,-178.8 605.27,-214.8"/>
<text text-anchor="middle" x="567" y="-192.6" font-family="Times,serif" font-size="14.00">BytesPipe </text>
</g>
<!-- SharedModule&#45;&gt;BytesPipe  -->
<g id="edge7" class="edge">
<title>SharedModule&#45;&gt;BytesPipe </title>
<path fill="none" stroke="black" stroke-dasharray="5,2" d="M475.35,-142.8C510.93,-142.8 552.7,-142.8 552.7,-142.8 552.7,-142.8 552.7,-168.52 552.7,-168.52"/>
<polygon fill="black" stroke="black" points="549.2,-168.52 552.7,-178.52 556.2,-168.52 549.2,-168.52"/>
</g>
<!-- ConfirmDialogComponent  -->
<g id="node9" class="node">
<title>ConfirmDialogComponent </title>
<polygon fill="#fb8072" stroke="black" points="511.37,-214.8 340.63,-214.8 340.63,-178.8 511.37,-178.8 511.37,-214.8"/>
<text text-anchor="middle" x="426" y="-192.6" font-family="Times,serif" font-size="14.00">ConfirmDialogComponent </text>
</g>
<!-- SharedModule&#45;&gt;ConfirmDialogComponent  -->
<g id="edge8" class="edge">
<title>SharedModule&#45;&gt;ConfirmDialogComponent </title>
<path fill="none" stroke="black" stroke-dasharray="5,2" d="M426,-149.91C426,-149.91 426,-168.79 426,-168.79"/>
<polygon fill="black" stroke="black" points="422.5,-168.79 426,-178.79 429.5,-168.79 422.5,-168.79"/>
</g>
<!-- CustomtextPipe  -->
<g id="node10" class="node">
<title>CustomtextPipe </title>
<polygon fill="#fb8072" stroke="black" points="322.45,-214.8 213.55,-214.8 213.55,-178.8 322.45,-178.8 322.45,-214.8"/>
<text text-anchor="middle" x="268" y="-192.6" font-family="Times,serif" font-size="14.00">CustomtextPipe </text>
</g>
<!-- SharedModule&#45;&gt;CustomtextPipe  -->
<g id="edge9" class="edge">
<title>SharedModule&#45;&gt;CustomtextPipe </title>
<path fill="none" stroke="black" stroke-dasharray="5,2" d="M376.62,-142.8C325.7,-142.8 253.68,-142.8 253.68,-142.8 253.68,-142.8 253.68,-168.52 253.68,-168.52"/>
<polygon fill="black" stroke="black" points="250.18,-168.52 253.68,-178.52 257.18,-168.52 250.18,-168.52"/>
</g>
<!-- MessageDialogComponent  -->
<g id="node11" class="node">
<title>MessageDialogComponent </title>
<polygon fill="#fb8072" stroke="black" points="195.91,-214.8 24.09,-214.8 24.09,-178.8 195.91,-178.8 195.91,-214.8"/>
<text text-anchor="middle" x="110" y="-192.6" font-family="Times,serif" font-size="14.00">MessageDialogComponent </text>
</g>
<!-- SharedModule&#45;&gt;MessageDialogComponent  -->
<g id="edge10" class="edge">
<title>SharedModule&#45;&gt;MessageDialogComponent </title>
<path fill="none" stroke="black" stroke-dasharray="5,2" d="M376.73,-135.8C282.76,-135.8 87.18,-135.8 87.18,-135.8 87.18,-135.8 87.18,-168.5 87.18,-168.5"/>
<polygon fill="black" stroke="black" points="83.68,-168.5 87.18,-178.5 90.68,-168.5 83.68,-168.5"/>
</g>
</g>
</svg>
