<?xml version="1.0" encoding="UTF-8" standalone="no"?>
<!DOCTYPE svg PUBLIC "-//W3C//DTD SVG 1.1//EN"
 "http://www.w3.org/Graphics/SVG/1.1/DTD/svg11.dtd">
<!-- Generated by graphviz version 2.47.3 (20210619.1520)
 -->
<!-- Title: dependencies Pages: 1 -->
<svg width="2442pt" height="247pt"
 viewBox="0.00 0.00 2442.00 246.80" xmlns="http://www.w3.org/2000/svg" xmlns:xlink="http://www.w3.org/1999/xlink">
<g id="graph0" class="graph" transform="scale(1 1) rotate(0) translate(4 242.8)">
<title>dependencies</title>
<polygon fill="white" stroke="transparent" points="-4,4 -4,-242.8 2438,-242.8 2438,4 -4,4"/>
<text text-anchor="middle" x="1217" y="-8.2" font-family="sans-serif" font-size="14.00">dependencies</text>
<g id="clust1" class="cluster">
<title>cluster_AppModule</title>
<polygon fill="none" stroke="black" stroke-dasharray="1,5" points="8,-32.8 8,-230.8 2426,-230.8 2426,-32.8 8,-32.8"/>
</g>
<g id="clust16" class="cluster">
<title>cluster_AppModule_bootstrap</title>
<polygon fill="none" stroke="black" points="1224,-170.8 1224,-222.8 1348,-222.8 1348,-170.8 1224,-170.8"/>
</g>
<g id="clust14" class="cluster">
<title>cluster_AppModule_imports</title>
<polygon fill="none" stroke="black" points="2157,-40.8 2157,-92.8 2418,-92.8 2418,-40.8 2157,-40.8"/>
</g>
<g id="clust17" class="cluster">
<title>cluster_AppModule_providers</title>
<polygon fill="none" stroke="black" points="1822,-40.8 1822,-92.8 2149,-92.8 2149,-40.8 1822,-40.8"/>
</g>
<g id="clust2" class="cluster">
<title>cluster_AppModule_declarations</title>
<polygon fill="none" stroke="black" points="16,-40.8 16,-92.8 1814,-92.8 1814,-40.8 16,-40.8"/>
</g>
<!-- AdminStarterComponent -->
<g id="node1" class="node">
<title>AdminStarterComponent</title>
<polygon fill="#ffffb3" stroke="black" points="1805.54,-84.8 1648.46,-84.8 1648.46,-48.8 1805.54,-48.8 1805.54,-84.8"/>
<text text-anchor="middle" x="1727" y="-62.6" font-family="Times,serif" font-size="14.00">AdminStarterComponent</text>
</g>
<!-- AppModule -->
<g id="node12" class="node">
<title>AppModule</title>
<polygon fill="#8dd3c7" stroke="black" points="1327.66,-149.8 1324.66,-153.8 1303.66,-153.8 1300.66,-149.8 1244.34,-149.8 1244.34,-113.8 1327.66,-113.8 1327.66,-149.8"/>
<text text-anchor="middle" x="1286" y="-127.6" font-family="Times,serif" font-size="14.00">AppModule</text>
</g>
<!-- AdminStarterComponent&#45;&gt;AppModule -->
<g id="edge1" class="edge">
<title>AdminStarterComponent&#45;&gt;AppModule</title>
<path fill="none" stroke="black" d="M1727,-85.1C1727,-103.07 1727,-127.8 1727,-127.8 1727,-127.8 1337.89,-127.8 1337.89,-127.8"/>
<polygon fill="black" stroke="black" points="1337.89,-124.3 1327.89,-127.8 1337.89,-131.3 1337.89,-124.3"/>
</g>
<!-- AppComponent -->
<g id="node2" class="node">
<title>AppComponent</title>
<polygon fill="#ffffb3" stroke="black" points="1630.94,-84.8 1525.06,-84.8 1525.06,-48.8 1630.94,-48.8 1630.94,-84.8"/>
<text text-anchor="middle" x="1578" y="-62.6" font-family="Times,serif" font-size="14.00">AppComponent</text>
</g>
<!-- AppComponent&#45;&gt;AppModule -->
<g id="edge2" class="edge">
<title>AppComponent&#45;&gt;AppModule</title>
<path fill="none" stroke="black" d="M1578,-84.83C1578,-101.2 1578,-122.8 1578,-122.8 1578,-122.8 1337.84,-122.8 1337.84,-122.8"/>
<polygon fill="black" stroke="black" points="1337.84,-119.3 1327.84,-122.8 1337.84,-126.3 1337.84,-119.3"/>
</g>
<!-- AppRootComponent -->
<g id="node3" class="node">
<title>AppRootComponent</title>
<polygon fill="#ffffb3" stroke="black" points="1507.17,-84.8 1374.83,-84.8 1374.83,-48.8 1507.17,-48.8 1507.17,-84.8"/>
<text text-anchor="middle" x="1441" y="-62.6" font-family="Times,serif" font-size="14.00">AppRootComponent</text>
</g>
<!-- AppRootComponent&#45;&gt;AppModule -->
<g id="edge3" class="edge">
<title>AppRootComponent&#45;&gt;AppModule</title>
<path fill="none" stroke="black" d="M1441,-84.99C1441,-99.98 1441,-118.8 1441,-118.8 1441,-118.8 1337.95,-118.8 1337.95,-118.8"/>
<polygon fill="black" stroke="black" points="1337.95,-115.3 1327.95,-118.8 1337.95,-122.3 1337.95,-115.3"/>
</g>
<!-- CodeInputComponent -->
<g id="node4" class="node">
<title>CodeInputComponent</title>
<polygon fill="#ffffb3" stroke="black" points="1356.44,-84.8 1215.56,-84.8 1215.56,-48.8 1356.44,-48.8 1356.44,-84.8"/>
<text text-anchor="middle" x="1286" y="-62.6" font-family="Times,serif" font-size="14.00">CodeInputComponent</text>
</g>
<!-- CodeInputComponent&#45;&gt;AppModule -->
<g id="edge4" class="edge">
<title>CodeInputComponent&#45;&gt;AppModule</title>
<path fill="none" stroke="black" d="M1286,-84.91C1286,-84.91 1286,-103.79 1286,-103.79"/>
<polygon fill="black" stroke="black" points="1282.5,-103.79 1286,-113.79 1289.5,-103.79 1282.5,-103.79"/>
</g>
<!-- LegalNoticeComponent -->
<g id="node5" class="node">
<title>LegalNoticeComponent</title>
<polygon fill="#ffffb3" stroke="black" points="1198.02,-84.8 1047.98,-84.8 1047.98,-48.8 1198.02,-48.8 1198.02,-84.8"/>
<text text-anchor="middle" x="1123" y="-62.6" font-family="Times,serif" font-size="14.00">LegalNoticeComponent</text>
</g>
<!-- LegalNoticeComponent&#45;&gt;AppModule -->
<g id="edge5" class="edge">
<title>LegalNoticeComponent&#45;&gt;AppModule</title>
<path fill="none" stroke="black" d="M1123,-84.99C1123,-99.98 1123,-118.8 1123,-118.8 1123,-118.8 1234.02,-118.8 1234.02,-118.8"/>
<polygon fill="black" stroke="black" points="1234.02,-122.3 1244.02,-118.8 1234.02,-115.3 1234.02,-122.3"/>
</g>
<!-- LoginComponent -->
<g id="node6" class="node">
<title>LoginComponent</title>
<polygon fill="#ffffb3" stroke="black" points="1029.28,-84.8 914.72,-84.8 914.72,-48.8 1029.28,-48.8 1029.28,-84.8"/>
<text text-anchor="middle" x="972" y="-62.6" font-family="Times,serif" font-size="14.00">LoginComponent</text>
</g>
<!-- LoginComponent&#45;&gt;AppModule -->
<g id="edge6" class="edge">
<title>LoginComponent&#45;&gt;AppModule</title>
<path fill="none" stroke="black" d="M972,-84.83C972,-101.2 972,-122.8 972,-122.8 972,-122.8 1234.3,-122.8 1234.3,-122.8"/>
<polygon fill="black" stroke="black" points="1234.3,-126.3 1244.3,-122.8 1234.3,-119.3 1234.3,-126.3"/>
</g>
<!-- MonitorStarterComponent -->
<g id="node7" class="node">
<title>MonitorStarterComponent</title>
<polygon fill="#ffffb3" stroke="black" points="896.03,-84.8 731.97,-84.8 731.97,-48.8 896.03,-48.8 896.03,-84.8"/>
<text text-anchor="middle" x="814" y="-62.6" font-family="Times,serif" font-size="14.00">MonitorStarterComponent</text>
</g>
<!-- MonitorStarterComponent&#45;&gt;AppModule -->
<g id="edge7" class="edge">
<title>MonitorStarterComponent&#45;&gt;AppModule</title>
<path fill="none" stroke="black" d="M814,-85.1C814,-103.07 814,-127.8 814,-127.8 814,-127.8 1234.11,-127.8 1234.11,-127.8"/>
<polygon fill="black" stroke="black" points="1234.11,-131.3 1244.11,-127.8 1234.11,-124.3 1234.11,-131.3"/>
</g>
<!-- RouteDispatcherComponent -->
<g id="node8" class="node">
<title>RouteDispatcherComponent</title>
<polygon fill="#ffffb3" stroke="black" points="713.91,-84.8 538.09,-84.8 538.09,-48.8 713.91,-48.8 713.91,-84.8"/>
<text text-anchor="middle" x="626" y="-62.6" font-family="Times,serif" font-size="14.00">RouteDispatcherComponent</text>
</g>
<!-- RouteDispatcherComponent&#45;&gt;AppModule -->
<g id="edge8" class="edge">
<title>RouteDispatcherComponent&#45;&gt;AppModule</title>
<path fill="none" stroke="black" d="M626,-84.91C626,-104.14 626,-131.8 626,-131.8 626,-131.8 1234.21,-131.8 1234.21,-131.8"/>
<polygon fill="black" stroke="black" points="1234.21,-135.3 1244.21,-131.8 1234.21,-128.3 1234.21,-135.3"/>
</g>
<!-- StatusCardComponent -->
<g id="node9" class="node">
<title>StatusCardComponent</title>
<polygon fill="#ffffb3" stroke="black" points="520.27,-84.8 377.73,-84.8 377.73,-48.8 520.27,-48.8 520.27,-84.8"/>
<text text-anchor="middle" x="449" y="-62.6" font-family="Times,serif" font-size="14.00">StatusCardComponent</text>
</g>
<!-- StatusCardComponent&#45;&gt;AppModule -->
<g id="edge9" class="edge">
<title>StatusCardComponent&#45;&gt;AppModule</title>
<path fill="none" stroke="black" d="M449,-84.83C449,-105.57 449,-136.8 449,-136.8 449,-136.8 1234.21,-136.8 1234.21,-136.8"/>
<polygon fill="black" stroke="black" points="1234.21,-140.3 1244.21,-136.8 1234.21,-133.3 1234.21,-140.3"/>
</g>
<!-- SysCheckStarterComponent -->
<g id="node10" class="node">
<title>SysCheckStarterComponent</title>
<polygon fill="#ffffb3" stroke="black" points="359.14,-84.8 184.86,-84.8 184.86,-48.8 359.14,-48.8 359.14,-84.8"/>
<text text-anchor="middle" x="272" y="-62.6" font-family="Times,serif" font-size="14.00">SysCheckStarterComponent</text>
</g>
<!-- SysCheckStarterComponent&#45;&gt;AppModule -->
<g id="edge10" class="edge">
<title>SysCheckStarterComponent&#45;&gt;AppModule</title>
<path fill="none" stroke="black" d="M272,-85.09C272,-107.01 272,-140.8 272,-140.8 272,-140.8 1234.04,-140.8 1234.04,-140.8"/>
<polygon fill="black" stroke="black" points="1234.04,-144.3 1244.04,-140.8 1234.04,-137.3 1234.04,-144.3"/>
</g>
<!-- TestStarterComponent -->
<g id="node11" class="node">
<title>TestStarterComponent</title>
<polygon fill="#ffffb3" stroke="black" points="166.25,-84.8 23.75,-84.8 23.75,-48.8 166.25,-48.8 166.25,-84.8"/>
<text text-anchor="middle" x="95" y="-62.6" font-family="Times,serif" font-size="14.00">TestStarterComponent</text>
</g>
<!-- TestStarterComponent&#45;&gt;AppModule -->
<g id="edge11" class="edge">
<title>TestStarterComponent&#45;&gt;AppModule</title>
<path fill="none" stroke="black" d="M95,-85.12C95,-108.46 95,-145.8 95,-145.8 95,-145.8 1234.31,-145.8 1234.31,-145.8"/>
<polygon fill="black" stroke="black" points="1234.31,-149.3 1244.31,-145.8 1234.31,-142.3 1234.31,-149.3"/>
</g>
<!-- AppComponent  -->
<g id="node15" class="node">
<title>AppComponent </title>
<polygon fill="#80b1d3" stroke="black" points="1340.44,-214.8 1231.56,-214.8 1231.56,-178.8 1340.44,-178.8 1340.44,-214.8"/>
<text text-anchor="middle" x="1286" y="-192.6" font-family="Times,serif" font-size="14.00">AppComponent </text>
</g>
<!-- AppModule&#45;&gt;AppComponent  -->
<g id="edge14" class="edge">
<title>AppModule&#45;&gt;AppComponent </title>
<path fill="none" stroke="black" stroke-dasharray="1,5" d="M1286,-149.91C1286,-149.91 1286,-168.79 1286,-168.79"/>
<polygon fill="black" stroke="black" points="1282.5,-168.79 1286,-178.79 1289.5,-168.79 1282.5,-168.79"/>
</g>
<!-- AppRoutingModule -->
<g id="node13" class="node">
<title>AppRoutingModule</title>
<polygon fill="#8dd3c7" stroke="black" points="2410.27,-84.8 2407.27,-88.8 2386.27,-88.8 2383.27,-84.8 2281.73,-84.8 2281.73,-48.8 2410.27,-48.8 2410.27,-84.8"/>
<text text-anchor="middle" x="2346" y="-62.6" font-family="Times,serif" font-size="14.00">AppRoutingModule</text>
</g>
<!-- AppRoutingModule&#45;&gt;AppModule -->
<g id="edge12" class="edge">
<title>AppRoutingModule&#45;&gt;AppModule</title>
<path fill="none" stroke="black" d="M2346,-85.12C2346,-108.46 2346,-145.8 2346,-145.8 2346,-145.8 1337.88,-145.8 1337.88,-145.8"/>
<polygon fill="black" stroke="black" points="1337.88,-142.3 1327.88,-145.8 1337.88,-149.3 1337.88,-142.3"/>
</g>
<!-- SharedModule -->
<g id="node14" class="node">
<title>SharedModule</title>
<polygon fill="#8dd3c7" stroke="black" points="2263.42,-84.8 2260.42,-88.8 2239.42,-88.8 2236.42,-84.8 2164.58,-84.8 2164.58,-48.8 2263.42,-48.8 2263.42,-84.8"/>
<text text-anchor="middle" x="2214" y="-62.6" font-family="Times,serif" font-size="14.00">SharedModule</text>
</g>
<!-- SharedModule&#45;&gt;AppModule -->
<g id="edge13" class="edge">
<title>SharedModule&#45;&gt;AppModule</title>
<path fill="none" stroke="black" d="M2214,-85.09C2214,-107.01 2214,-140.8 2214,-140.8 2214,-140.8 1337.68,-140.8 1337.68,-140.8"/>
<polygon fill="black" stroke="black" points="1337.68,-137.3 1327.68,-140.8 1337.68,-144.3 1337.68,-137.3"/>
</g>
<!-- AuthInterceptor -->
<g id="node16" class="node">
<title>AuthInterceptor</title>
<ellipse fill="#fdb462" stroke="black" cx="2068" cy="-66.8" rx="72.91" ry="18"/>
<text text-anchor="middle" x="2068" y="-62.6" font-family="Times,serif" font-size="14.00">AuthInterceptor</text>
</g>
<!-- AuthInterceptor&#45;&gt;AppModule -->
<g id="edge15" class="edge">
<title>AuthInterceptor&#45;&gt;AppModule</title>
<path fill="none" stroke="black" d="M2068,-84.83C2068,-105.57 2068,-136.8 2068,-136.8 2068,-136.8 1337.77,-136.8 1337.77,-136.8"/>
<polygon fill="black" stroke="black" points="1337.77,-133.3 1327.77,-136.8 1337.77,-140.3 1337.77,-133.3"/>
</g>
<!-- BackendService -->
<g id="node17" class="node">
<title>BackendService</title>
<ellipse fill="#fdb462" stroke="black" cx="1904" cy="-66.8" rx="73.56" ry="18"/>
<text text-anchor="middle" x="1904" y="-62.6" font-family="Times,serif" font-size="14.00">BackendService</text>
</g>
<!-- BackendService&#45;&gt;AppModule -->
<g id="edge16" class="edge">
<title>BackendService&#45;&gt;AppModule</title>
<path fill="none" stroke="black" d="M1904,-84.91C1904,-104.14 1904,-131.8 1904,-131.8 1904,-131.8 1337.99,-131.8 1337.99,-131.8"/>
<polygon fill="black" stroke="black" points="1337.99,-128.3 1327.99,-131.8 1337.99,-135.3 1337.99,-128.3"/>
</g>
</g>
</svg>
