<?xml version="1.0" encoding="UTF-8" standalone="no"?>
<!DOCTYPE svg PUBLIC "-//W3C//DTD SVG 1.1//EN"
 "http://www.w3.org/Graphics/SVG/1.1/DTD/svg11.dtd">
<!-- Generated by graphviz version 3.0.0 (20220226.1711)
 -->
<!-- Title: dependencies Pages: 1 -->
<svg width="2442pt" height="247pt"
 viewBox="0.00 0.00 2442.00 246.80" xmlns="http://www.w3.org/2000/svg" xmlns:xlink="http://www.w3.org/1999/xlink">
<g id="graph0" class="graph" transform="scale(1 1) rotate(0) translate(4 242.8)">
<title>dependencies</title>
<polygon fill="white" stroke="transparent" points="-4,4 -4,-242.8 2438,-242.8 2438,4 -4,4"/>
<text text-anchor="middle" x="1217" y="-8.2" font-family="sans-serif" font-size="14.00">dependencies</text>
<g id="clust1" class="cluster">
<title>cluster_AppModule</title>
<polygon fill="none" stroke="black" stroke-dasharray="1,5" points="8,-32.8 8,-230.8 2426,-230.8 2426,-32.8 8,-32.8"/>
</g>
<g id="clust2" class="cluster">
<title>cluster_AppModule_declarations</title>
<polygon fill="none" stroke="black" points="620,-40.8 620,-92.8 2418,-92.8 2418,-40.8 620,-40.8"/>
</g>
<g id="clust16" class="cluster">
<title>cluster_AppModule_bootstrap</title>
<polygon fill="none" stroke="black" points="1168,-170.8 1168,-222.8 1292,-222.8 1292,-170.8 1168,-170.8"/>
</g>
<g id="clust14" class="cluster">
<title>cluster_AppModule_imports</title>
<polygon fill="none" stroke="black" points="351,-40.8 351,-92.8 612,-92.8 612,-40.8 351,-40.8"/>
</g>
<g id="clust17" class="cluster">
<title>cluster_AppModule_providers</title>
<polygon fill="none" stroke="black" points="16,-40.8 16,-92.8 343,-92.8 343,-40.8 16,-40.8"/>
</g>
<!-- AdminStarterComponent -->
<g id="node1" class="node">
<title>AdminStarterComponent</title>
<polygon fill="#ffffb3" stroke="black" points="2409.54,-84.8 2252.46,-84.8 2252.46,-48.8 2409.54,-48.8 2409.54,-84.8"/>
<text text-anchor="middle" x="2331" y="-62.6" font-family="Times,serif" font-size="14.00">AdminStarterComponent</text>
</g>
<!-- AppModule -->
<g id="node12" class="node">
<title>AppModule</title>
<polygon fill="#8dd3c7" stroke="black" points="1271.66,-149.8 1268.66,-153.8 1247.66,-153.8 1244.66,-149.8 1188.34,-149.8 1188.34,-113.8 1271.66,-113.8 1271.66,-149.8"/>
<text text-anchor="middle" x="1230" y="-127.6" font-family="Times,serif" font-size="14.00">AppModule</text>
</g>
<!-- AdminStarterComponent&#45;&gt;AppModule -->
<g id="edge1" class="edge">
<title>AdminStarterComponent&#45;&gt;AppModule</title>
<path fill="none" stroke="black" d="M2331,-85.12C2331,-108.46 2331,-145.8 2331,-145.8 2331,-145.8 1281.82,-145.8 1281.82,-145.8"/>
<polygon fill="black" stroke="black" points="1281.82,-142.3 1271.82,-145.8 1281.82,-149.3 1281.82,-142.3"/>
</g>
<!-- AppComponent -->
<g id="node2" class="node">
<title>AppComponent</title>
<polygon fill="#ffffb3" stroke="black" points="2234.94,-84.8 2129.06,-84.8 2129.06,-48.8 2234.94,-48.8 2234.94,-84.8"/>
<text text-anchor="middle" x="2182" y="-62.6" font-family="Times,serif" font-size="14.00">AppComponent</text>
</g>
<!-- AppComponent&#45;&gt;AppModule -->
<g id="edge2" class="edge">
<title>AppComponent&#45;&gt;AppModule</title>
<path fill="none" stroke="black" d="M2182,-85.09C2182,-107.01 2182,-140.8 2182,-140.8 2182,-140.8 1281.83,-140.8 1281.83,-140.8"/>
<polygon fill="black" stroke="black" points="1281.83,-137.3 1271.83,-140.8 1281.83,-144.3 1281.83,-137.3"/>
</g>
<!-- AppRootComponent -->
<g id="node3" class="node">
<title>AppRootComponent</title>
<polygon fill="#ffffb3" stroke="black" points="2111.17,-84.8 1978.83,-84.8 1978.83,-48.8 2111.17,-48.8 2111.17,-84.8"/>
<text text-anchor="middle" x="2045" y="-62.6" font-family="Times,serif" font-size="14.00">AppRootComponent</text>
</g>
<!-- AppRootComponent&#45;&gt;AppModule -->
<g id="edge3" class="edge">
<title>AppRootComponent&#45;&gt;AppModule</title>
<path fill="none" stroke="black" d="M2045,-84.83C2045,-105.57 2045,-136.8 2045,-136.8 2045,-136.8 1281.82,-136.8 1281.82,-136.8"/>
<polygon fill="black" stroke="black" points="1281.82,-133.3 1271.82,-136.8 1281.82,-140.3 1281.82,-133.3"/>
</g>
<!-- CodeInputComponent -->
<g id="node4" class="node">
<title>CodeInputComponent</title>
<polygon fill="#ffffb3" stroke="black" points="1960.44,-84.8 1819.56,-84.8 1819.56,-48.8 1960.44,-48.8 1960.44,-84.8"/>
<text text-anchor="middle" x="1890" y="-62.6" font-family="Times,serif" font-size="14.00">CodeInputComponent</text>
</g>
<!-- CodeInputComponent&#45;&gt;AppModule -->
<g id="edge4" class="edge">
<title>CodeInputComponent&#45;&gt;AppModule</title>
<path fill="none" stroke="black" d="M1890,-84.91C1890,-104.14 1890,-131.8 1890,-131.8 1890,-131.8 1281.79,-131.8 1281.79,-131.8"/>
<polygon fill="black" stroke="black" points="1281.79,-128.3 1271.79,-131.8 1281.79,-135.3 1281.79,-128.3"/>
</g>
<!-- LegalNoticeComponent -->
<g id="node5" class="node">
<title>LegalNoticeComponent</title>
<polygon fill="#ffffb3" stroke="black" points="1802.02,-84.8 1651.98,-84.8 1651.98,-48.8 1802.02,-48.8 1802.02,-84.8"/>
<text text-anchor="middle" x="1727" y="-62.6" font-family="Times,serif" font-size="14.00">LegalNoticeComponent</text>
</g>
<!-- LegalNoticeComponent&#45;&gt;AppModule -->
<g id="edge5" class="edge">
<title>LegalNoticeComponent&#45;&gt;AppModule</title>
<path fill="none" stroke="black" d="M1727,-85.1C1727,-103.07 1727,-127.8 1727,-127.8 1727,-127.8 1281.95,-127.8 1281.95,-127.8"/>
<polygon fill="black" stroke="black" points="1281.95,-124.3 1271.95,-127.8 1281.95,-131.3 1281.95,-124.3"/>
</g>
<!-- LoginComponent -->
<g id="node6" class="node">
<title>LoginComponent</title>
<polygon fill="#ffffb3" stroke="black" points="1633.27,-84.8 1518.73,-84.8 1518.73,-48.8 1633.27,-48.8 1633.27,-84.8"/>
<text text-anchor="middle" x="1576" y="-62.6" font-family="Times,serif" font-size="14.00">LoginComponent</text>
</g>
<!-- LoginComponent&#45;&gt;AppModule -->
<g id="edge6" class="edge">
<title>LoginComponent&#45;&gt;AppModule</title>
<path fill="none" stroke="black" d="M1576,-84.83C1576,-101.2 1576,-122.8 1576,-122.8 1576,-122.8 1281.74,-122.8 1281.74,-122.8"/>
<polygon fill="black" stroke="black" points="1281.74,-119.3 1271.74,-122.8 1281.74,-126.3 1281.74,-119.3"/>
</g>
<!-- MonitorStarterComponent -->
<g id="node7" class="node">
<title>MonitorStarterComponent</title>
<polygon fill="#ffffb3" stroke="black" points="1500.04,-84.8 1335.96,-84.8 1335.96,-48.8 1500.04,-48.8 1500.04,-84.8"/>
<text text-anchor="middle" x="1418" y="-62.6" font-family="Times,serif" font-size="14.00">MonitorStarterComponent</text>
</g>
<!-- MonitorStarterComponent&#45;&gt;AppModule -->
<g id="edge7" class="edge">
<title>MonitorStarterComponent&#45;&gt;AppModule</title>
<path fill="none" stroke="black" d="M1418,-84.99C1418,-99.98 1418,-118.8 1418,-118.8 1418,-118.8 1281.72,-118.8 1281.72,-118.8"/>
<polygon fill="black" stroke="black" points="1281.72,-115.3 1271.72,-118.8 1281.72,-122.3 1281.72,-115.3"/>
</g>
<!-- RouteDispatcherComponent -->
<g id="node8" class="node">
<title>RouteDispatcherComponent</title>
<polygon fill="#ffffb3" stroke="black" points="1317.91,-84.8 1142.09,-84.8 1142.09,-48.8 1317.91,-48.8 1317.91,-84.8"/>
<text text-anchor="middle" x="1230" y="-62.6" font-family="Times,serif" font-size="14.00">RouteDispatcherComponent</text>
</g>
<!-- RouteDispatcherComponent&#45;&gt;AppModule -->
<g id="edge8" class="edge">
<title>RouteDispatcherComponent&#45;&gt;AppModule</title>
<path fill="none" stroke="black" d="M1230,-84.91C1230,-84.91 1230,-103.79 1230,-103.79"/>
<polygon fill="black" stroke="black" points="1226.5,-103.79 1230,-113.79 1233.5,-103.79 1226.5,-103.79"/>
</g>
<!-- StatusCardComponent -->
<g id="node9" class="node">
<title>StatusCardComponent</title>
<polygon fill="#ffffb3" stroke="black" points="1124.27,-84.8 981.73,-84.8 981.73,-48.8 1124.27,-48.8 1124.27,-84.8"/>
<text text-anchor="middle" x="1053" y="-62.6" font-family="Times,serif" font-size="14.00">StatusCardComponent</text>
</g>
<!-- StatusCardComponent&#45;&gt;AppModule -->
<g id="edge9" class="edge">
<title>StatusCardComponent&#45;&gt;AppModule</title>
<path fill="none" stroke="black" d="M1053,-84.99C1053,-99.98 1053,-118.8 1053,-118.8 1053,-118.8 1178.05,-118.8 1178.05,-118.8"/>
<polygon fill="black" stroke="black" points="1178.05,-122.3 1188.05,-118.8 1178.05,-115.3 1178.05,-122.3"/>
</g>
<!-- SysCheckStarterComponent -->
<g id="node10" class="node">
<title>SysCheckStarterComponent</title>
<polygon fill="#ffffb3" stroke="black" points="963.15,-84.8 788.85,-84.8 788.85,-48.8 963.15,-48.8 963.15,-84.8"/>
<text text-anchor="middle" x="876" y="-62.6" font-family="Times,serif" font-size="14.00">SysCheckStarterComponent</text>
</g>
<!-- SysCheckStarterComponent&#45;&gt;AppModule -->
<g id="edge10" class="edge">
<title>SysCheckStarterComponent&#45;&gt;AppModule</title>
<path fill="none" stroke="black" d="M876,-84.83C876,-101.2 876,-122.8 876,-122.8 876,-122.8 1178,-122.8 1178,-122.8"/>
<polygon fill="black" stroke="black" points="1178,-126.3 1188,-122.8 1178,-119.3 1178,-126.3"/>
</g>
<!-- TestStarterComponent -->
<g id="node11" class="node">
<title>TestStarterComponent</title>
<polygon fill="#ffffb3" stroke="black" points="770.25,-84.8 627.75,-84.8 627.75,-48.8 770.25,-48.8 770.25,-84.8"/>
<text text-anchor="middle" x="699" y="-62.6" font-family="Times,serif" font-size="14.00">TestStarterComponent</text>
</g>
<!-- TestStarterComponent&#45;&gt;AppModule -->
<g id="edge11" class="edge">
<title>TestStarterComponent&#45;&gt;AppModule</title>
<path fill="none" stroke="black" d="M699,-85.1C699,-103.07 699,-127.8 699,-127.8 699,-127.8 1178.33,-127.8 1178.33,-127.8"/>
<polygon fill="black" stroke="black" points="1178.33,-131.3 1188.33,-127.8 1178.33,-124.3 1178.33,-131.3"/>
</g>
<!-- AppComponent  -->
<g id="node15" class="node">
<title>AppComponent </title>
<polygon fill="#80b1d3" stroke="black" points="1284.44,-214.8 1175.56,-214.8 1175.56,-178.8 1284.44,-178.8 1284.44,-214.8"/>
<text text-anchor="middle" x="1230" y="-192.6" font-family="Times,serif" font-size="14.00">AppComponent </text>
</g>
<!-- AppModule&#45;&gt;AppComponent  -->
<g id="edge14" class="edge">
<title>AppModule&#45;&gt;AppComponent </title>
<path fill="none" stroke="black" stroke-dasharray="1,5" d="M1230,-149.91C1230,-149.91 1230,-168.79 1230,-168.79"/>
<polygon fill="black" stroke="black" points="1226.5,-168.79 1230,-178.79 1233.5,-168.79 1226.5,-168.79"/>
</g>
<!-- AppRoutingModule -->
<g id="node13" class="node">
<title>AppRoutingModule</title>
<polygon fill="#8dd3c7" stroke="black" points="604.28,-84.8 601.28,-88.8 580.28,-88.8 577.28,-84.8 475.72,-84.8 475.72,-48.8 604.28,-48.8 604.28,-84.8"/>
<text text-anchor="middle" x="540" y="-62.6" font-family="Times,serif" font-size="14.00">AppRoutingModule</text>
</g>
<!-- AppRoutingModule&#45;&gt;AppModule -->
<g id="edge12" class="edge">
<title>AppRoutingModule&#45;&gt;AppModule</title>
<path fill="none" stroke="black" d="M540,-84.91C540,-104.14 540,-131.8 540,-131.8 540,-131.8 1178.13,-131.8 1178.13,-131.8"/>
<polygon fill="black" stroke="black" points="1178.13,-135.3 1188.13,-131.8 1178.13,-128.3 1178.13,-135.3"/>
</g>
<!-- SharedModule -->
<g id="node14" class="node">
<title>SharedModule</title>
<polygon fill="#8dd3c7" stroke="black" points="457.43,-84.8 454.43,-88.8 433.43,-88.8 430.43,-84.8 358.57,-84.8 358.57,-48.8 457.43,-48.8 457.43,-84.8"/>
<text text-anchor="middle" x="408" y="-62.6" font-family="Times,serif" font-size="14.00">SharedModule</text>
</g>
<!-- SharedModule&#45;&gt;AppModule -->
<g id="edge13" class="edge">
<title>SharedModule&#45;&gt;AppModule</title>
<path fill="none" stroke="black" d="M408,-84.83C408,-105.57 408,-136.8 408,-136.8 408,-136.8 1178.11,-136.8 1178.11,-136.8"/>
<polygon fill="black" stroke="black" points="1178.11,-140.3 1188.11,-136.8 1178.11,-133.3 1178.11,-140.3"/>
</g>
<!-- AuthInterceptor -->
<g id="node16" class="node">
<title>AuthInterceptor</title>
<ellipse fill="#fdb462" stroke="black" cx="262" cy="-66.8" rx="72.92" ry="18"/>
<text text-anchor="middle" x="262" y="-62.6" font-family="Times,serif" font-size="14.00">AuthInterceptor</text>
</g>
<!-- AuthInterceptor&#45;&gt;AppModule -->
<g id="edge15" class="edge">
<title>AuthInterceptor&#45;&gt;AppModule</title>
<path fill="none" stroke="black" d="M262,-85.09C262,-107.01 262,-140.8 262,-140.8 262,-140.8 1178.1,-140.8 1178.1,-140.8"/>
<polygon fill="black" stroke="black" points="1178.1,-144.3 1188.1,-140.8 1178.1,-137.3 1178.1,-144.3"/>
</g>
<!-- BackendService -->
<g id="node17" class="node">
<title>BackendService</title>
<ellipse fill="#fdb462" stroke="black" cx="98" cy="-66.8" rx="73.56" ry="18"/>
<text text-anchor="middle" x="98" y="-62.6" font-family="Times,serif" font-size="14.00">BackendService</text>
</g>
<!-- BackendService&#45;&gt;AppModule -->
<g id="edge16" class="edge">
<title>BackendService&#45;&gt;AppModule</title>
<path fill="none" stroke="black" d="M98,-85.12C98,-108.46 98,-145.8 98,-145.8 98,-145.8 1178.03,-145.8 1178.03,-145.8"/>
<polygon fill="black" stroke="black" points="1178.03,-149.3 1188.03,-145.8 1178.03,-142.3 1178.03,-149.3"/>
</g>
</g>
</svg>
