<svg xmlns="http://www.w3.org/2000/svg" style="display: none;">
  <symbol id="chevron_left" height="24px" viewBox="0 -960 960 960" width="24px">
    <path d="M560-240 320-480l240-240 56 56-184 184 184 184-56 56Z"/>
  </symbol>

  <symbol id="chevron_right" height="24px" viewBox="0 -960 960 960" width="24px">
    <path d="M504-480 320-664l56-56 240 240-240 240-56-56 184-184Z"/>
  </symbol>

  <symbol id="keyboard_arrow_left" height="24px" viewBox="0 -960 960 960" width="24px">
    <path d="M560-240 320-480l240-240 56 56-184 184 184 184-56 56Z"/>
  </symbol>

  <symbol id="keyboard_arrow_right" height="24px" viewBox="0 -960 960 960" width="24px">
    <path d="M504-480 320-664l56-56 240 240-240 240-56-56 184-184Z"/>
  </symbol>

  <symbol id="play_arrow" height="24px" viewBox="0 -960 960 960" width="24px">
    <path d="M320-200v-560l440 280-440 280Zm80-280Zm0 134 210-134-210-134v268Z"/>
  </symbol>

  <symbol id="play_pause" height="24px" viewBox="0 -960 960 960" width="24px">
    <path d="M200-312v-336l240 168-240 168Zm320-8v-320h80v320h-80Zm160 0v-320h80v320h-80Z"/>
  </symbol>

  <symbol id="mystery" height="24px" viewBox="0 -960 960 960" width="24px">
    <path d="M440-240q116 0 198-81.5T720-520q0-116-82-198t-198-82q-117 0-198.5 82T160-520q0 117 81.5 198.5T440-240Zm0-280Zm0 160q-83 0-147.5-44.5T200-520q28-70 92.5-115T440-680q82 0 146.5 45T680-520q-29 71-93.5 115.5T440-360Zm0-60q55 0 101-26.5t72-73.5q-26-46-72-73t-101-27q-56 0-102 27t-72 73q26 47 72 73.5T440-420Zm0-40q25 0 42.5-17t17.5-43q0-25-17.5-42.5T440-580q-26 0-43 17.5T380-520q0 26 17 43t43 17Zm0 300q-75 0-140.5-28.5t-114-77q-48.5-48.5-77-114T80-520q0-74 28.5-139.5t77-114.5q48.5-49 114-77.5T440-880q74 0 139.5 28.5T694-774q49 49 77.5 114.5T800-520q0 64-21 121t-58 104l159 159-57 56-159-158q-47 37-104 57.5T440-160Z"/>
  </symbol>

  <symbol id="block" height="24px" viewBox="0 -960 960 960" width="24px">
    <path d="M324-111.5Q251-143 197-197t-85.5-127Q80-397 80-480t31.5-156Q143-709 197-763t127-85.5Q397-880 480-880t156 31.5Q709-817 763-763t85.5 127Q880-563 880-480t-31.5 156Q817-251 763-197t-127 85.5Q563-80 480-80t-156-31.5ZM480-160q54 0 104-17.5t92-50.5L228-676q-33 42-50.5 92T160-480q0 134 93 227t227 93Zm252-124q33-42 50.5-92T800-480q0-134-93-227t-227-93q-54 0-104 17.5T284-732l448 448ZM480-480Z"/>
  </symbol>

  <symbol id="clock_loader_60" height="24px" width="24px" viewBox="0 -960 960 960">
    <path d="M324-111.5Q251-143 197-197t-85.5-127Q80-397 80-480t31.5-156Q143-709 197-763t127-85.5Q397-880 480-880t156 31.5Q709-817 763-763t85.5 127Q880-563 880-480t-31.5 156Q817-251 763-197t-127 85.5Q563-80 480-80t-156-31.5ZM253-253l227-227v-320q-134 0-227 93t-93 227q0 64 24 123t69 104Z"/>
  </symbol>

  <symbol id="more_vert" height="24px" width="24px" viewBox="0 -960 960 960">
    <path d="M480-160q-33 0-56.5-23.5T400-240q0-33 23.5-56.5T480-320q33 0 56.5 23.5T560-240q0 33-23.5 56.5T480-160Zm0-240q-33 0-56.5-23.5T400-480q0-33 23.5-56.5T480-560q33 0 56.5 23.5T560-480q0 33-23.5 56.5T480-400Zm0-240q-33 0-56.5-23.5T400-720q0-33 23.5-56.5T480-800q33 0 56.5 23.5T560-720q0 33-23.5 56.5T480-640Z"/>
  </symbol>

  <symbol id="arrows_output" height="24px" width="24px" viewBox="0 -960 960 960">
    <path d="M120-120v-240h80v104l124-124 56 56-124 124h104v80H120Zm480 0v-80h104L580-324l56-56 124 124v-104h80v240H600ZM324-580 200-704v104h-80v-240h240v80H256l124 124-56 56Zm312 0-56-56 124-124H600v-80h240v240h-80v-104L636-580ZM480-400q-33 0-56.5-23.5T400-480q0-33 23.5-56.5T480-560q33 0 56.5 23.5T560-480q0 33-23.5 56.5T480-400Z"/>
  </symbol>

  <symbol id="autorenew" height="24px" width="24px" viewBox="0 -960 960 960">
    <path d="M204-318q-22-38-33-78t-11-82q0-134 93-228t227-94h7l-64-64 56-56 160 160-160 160-56-56 64-64h-7q-100 0-170 70.5T240-478q0 26 6 51t18 49l-60 60ZM481-40 321-200l160-160 56 56-64 64h7q100 0 170-70.5T720-482q0-26-6-51t-18-49l60-60q22 38 33 78t11 82q0 134-93 228t-227 94h-7l64 64-56 56Z"/>
  </symbol>

  <symbol id="person" height="24px" width="24px" viewBox="0 -960 960 960">
    <path d="M367-527q-47-47-47-113t47-113q47-47 113-47t113 47q47 47 47 113t-47 113q-47 47-113 47t-113-47ZM160-160v-112q0-34 17.5-62.5T224-378q62-31 126-46.5T480-440q66 0 130 15.5T736-378q29 15 46.5 43.5T800-272v112H160Zm80-80h480v-32q0-11-5.5-20T700-306q-54-27-109-40.5T480-360q-56 0-111 13.5T260-306q-9 5-14.5 14t-5.5 20v32Zm296.5-343.5Q560-607 560-640t-23.5-56.5Q513-720 480-720t-56.5 23.5Q400-673 400-640t23.5 56.5Q447-560 480-560t56.5-23.5ZM480-640Zm0 400Z"/>
  </symbol>

  <symbol id="check" height="24px" viewBox="0 -960 960 960" width="24px">
    <path d="M382-240 154-468l57-57 171 171 367-367 57 57-424 424Z"/>
  </symbol>

  <symbol id="edit" height="24px" viewBox="0 -960 960 960" width="24px">
    <path d="M200-200h57l391-391-57-57-391 391v57Zm-80 80v-170l528-527q12-11 26.5-17t30.5-6q16 0 31 6t26 18l55 56q12 11 17.5 26t5.5 30q0 16-5.5 30.5T817-647L290-120H120Zm640-584-56-56 56 56Zm-141 85-28-29 57 57-29-28Z"/>
  </symbol>

  <symbol id="add" height="24px" viewBox="0 -960 960 960" width="24px">
    <path d="M440-440H200v-80h240v-240h80v240h240v80H520v240h-80v-240Z"/>
  </symbol>

  <symbol id="pause" height="24px" viewBox="0 -960 960 960" width="24px">
    <path d="M520-200v-560h240v560H520Zm-320 0v-560h240v560H200Zm400-80h80v-400h-80v400Zm-320 0h80v-400h-80v400Zm0-400v400-400Zm320 0v400-400Z"/>
  </symbol>

  <symbol id="arrow_forward" height="24px" viewBox="0 -960 960 960" width="24px">
    <path d="M647-440H160v-80h487L423-744l57-56 320 320-320 320-57-56 224-224Z"/>
  </symbol>

  <symbol id="lock_open" height="24px" viewBox="0 -960 960 960" width="24px">
    <path d="M240-640h360v-80q0-50-35-85t-85-35q-50 0-85 35t-35 85h-80q0-83 58.5-141.5T480-920q83 0 141.5 58.5T680-720v80h40q33 0 56.5 23.5T800-560v400q0 33-23.5 56.5T720-80H240q-33 0-56.5-23.5T160-160v-400q0-33 23.5-56.5T240-640Zm0 480h480v-400H240v400Zm296.5-143.5Q560-327 560-360t-23.5-56.5Q513-440 480-440t-56.5 23.5Q400-393 400-360t23.5 56.5Q447-280 480-280t56.5-23.5ZM240-160v-400 400Z"/>
  </symbol>

  <symbol id="stop" height="24px" viewBox="0 -960 960 960" width="24px">
    <path d="M320-640v320-320Zm-80 400v-480h480v480H240Zm80-80h320v-320H320v320Z"/>
  </symbol>

  <symbol id="keyboard_arrow_down" height="24px" viewBox="0 -960 960 960" width="24px">
    <path d="M480-344 240-584l56-56 184 184 184-184 56 56-240 240Z"/>
  </symbol>

  <symbol id="settings" height="24px" viewBox="0 -960 960 960" width="24px">
    <path d="m370-80-16-128q-13-5-24.5-12T307-235l-119 50L78-375l103-78q-1-7-1-13.5v-27q0-6.5 1-13.5L78-585l110-190 119 50q11-8 23-15t24-12l16-128h220l16 128q13 5 24.5 12t22.5 15l119-50 110 190-103 78q1 7 1 13.5v27q0 6.5-2 13.5l103 78-110 190-118-50q-11 8-23 15t-24 12L590-80H370Zm70-80h79l14-106q31-8 57.5-23.5T639-327l99 41 39-68-86-65q5-14 7-29.5t2-31.5q0-16-2-31.5t-7-29.5l86-65-39-68-99 42q-22-23-48.5-38.5T533-694l-13-106h-79l-14 106q-31 8-57.5 23.5T321-633l-99-41-39 68 86 64q-5 15-7 30t-2 32q0 16 2 31t7 30l-86 65 39 68 99-42q22 23 48.5 38.5T427-266l13 106Zm42-180q58 0 99-41t41-99q0-58-41-99t-99-41q-59 0-99.5 41T342-480q0 58 40.5 99t99.5 41Zm-2-140Z"/>
  </symbol>

  <symbol id="search" height="24px" viewBox="0 -960 960 960" width="24px">
    <path d="M784-120 532-372q-30 24-69 38t-83 14q-109 0-184.5-75.5T120-580q0-109 75.5-184.5T380-840q109 0 184.5 75.5T640-580q0 44-14 83t-38 69l252 252-56 56ZM380-400q75 0 127.5-52.5T560-580q0-75-52.5-127.5T380-760q-75 0-127.5 52.5T200-580q0 75 52.5 127.5T380-400Z"/>
  </symbol>

  <symbol id="wifi_tethering" height="24px" viewBox="0 -960 960 960" width="24px">
    <path d="M204-150q-57-55-90.5-129.5T80-440q0-83 31.5-156T197-723q54-54 127-85.5T480-840q83 0 156 31.5T763-723q54 54 85.5 127T880-440q0 86-33.5 161T756-150l-56-56q46-44 73-104.5T800-440q0-134-93-227t-227-93q-134 0-227 93t-93 227q0 69 27 129t74 104l-57 57Zm113-113q-35-33-56-78.5T240-440q0-100 70-170t170-70q100 0 170 70t70 170q0 53-21 99t-56 78l-57-57q25-23 39.5-54t14.5-66q0-66-47-113t-113-47q-66 0-113 47t-47 113q0 36 14.5 66.5T374-320l-57 57Zm106.5-120.5Q400-407 400-440t23.5-56.5Q447-520 480-520t56.5 23.5Q560-473 560-440t-23.5 56.5Q513-360 480-360t-56.5-23.5Z"/>
  </symbol>

  <symbol id="rate_review" height="24px" viewBox="0 -960 960 960" width="24px">
    <path d="M240-400h122l200-200q9-9 13.5-20.5T580-643q0-11-5-21.5T562-684l-36-38q-9-9-20-13.5t-23-4.5q-11 0-22.5 4.5T440-722L240-522v122Zm280-243-37-37 37 37ZM300-460v-38l101-101 20 18 18 20-101 101h-38Zm121-121 18 20-38-38 20 18Zm26 181h273v-80H527l-80 80ZM80-80v-720q0-33 23.5-56.5T160-880h640q33 0 56.5 23.5T880-800v480q0 33-23.5 56.5T800-240H240L80-80Zm126-240h594v-480H160v525l46-45Zm-46 0v-480 480Z"/>
  </symbol>

  <symbol id="add_circle" height="24px" viewBox="0 -960 960 960" width="24px">
    <path d="M440-280h80v-160h160v-80H520v-160h-80v160H280v80h160v160Zm40 200q-83 0-156-31.5T197-197q-54-54-85.5-127T80-480q0-83 31.5-156T197-763q54-54 127-85.5T480-880q83 0 156 31.5T763-763q54 54 85.5 127T880-480q0 83-31.5 156T763-197q-54 54-127 85.5T480-80Zm0-80q134 0 227-93t93-227q0-134-93-227t-227-93q-134 0-227 93t-93 227q0 134 93 227t227 93Zm0-320Z"/>
  </symbol>

  <symbol id="list_alt" height="24px" viewBox="0 -960 960 960" width="24px">
    <path d="M348.5-291.5Q360-303 360-320t-11.5-28.5Q337-360 320-360t-28.5 11.5Q280-337 280-320t11.5 28.5Q303-280 320-280t28.5-11.5Zm0-160Q360-463 360-480t-11.5-28.5Q337-520 320-520t-28.5 11.5Q280-497 280-480t11.5 28.5Q303-440 320-440t28.5-11.5Zm0-160Q360-623 360-640t-11.5-28.5Q337-680 320-680t-28.5 11.5Q280-657 280-640t11.5 28.5Q303-600 320-600t28.5-11.5ZM440-280h240v-80H440v80Zm0-160h240v-80H440v80Zm0-160h240v-80H440v80ZM200-120q-33 0-56.5-23.5T120-200v-560q0-33 23.5-56.5T200-840h560q33 0 56.5 23.5T840-760v560q0 33-23.5 56.5T760-120H200Zm0-80h560v-560H200v560Zm0-560v560-560Z"/>
  </symbol>

  <symbol id="lock" height="24px" viewBox="0 -960 960 960" width="24px">
    <path d="M240-80q-33 0-56.5-23.5T160-160v-400q0-33 23.5-56.5T240-640h40v-80q0-83 58.5-141.5T480-920q83 0 141.5 58.5T680-720v80h40q33 0 56.5 23.5T800-560v400q0 33-23.5 56.5T720-80H240Zm0-80h480v-400H240v400Zm296.5-143.5Q560-327 560-360t-23.5-56.5Q513-440 480-440t-56.5 23.5Q400-393 400-360t23.5 56.5Q447-280 480-280t56.5-23.5ZM360-640h240v-80q0-50-35-85t-85-35q-50 0-85 35t-35 85v80ZM240-160v-400 400Z"/>
  </symbol>

  <symbol id="error" height="24px" viewBox="0 -960 960 960" width="24px">
    <path d="M508.5-291.5Q520-303 520-320t-11.5-28.5Q497-360 480-360t-28.5 11.5Q440-337 440-320t11.5 28.5Q463-280 480-280t28.5-11.5ZM440-440h80v-240h-80v240Zm40 360q-83 0-156-31.5T197-197q-54-54-85.5-127T80-480q0-83 31.5-156T197-763q54-54 127-85.5T480-880q83 0 156 31.5T763-763q54 54 85.5 127T880-480q0 83-31.5 156T763-197q-54 54-127 85.5T480-80Zm0-80q134 0 227-93t93-227q0-134-93-227t-227-93q-134 0-227 93t-93 227q0 134 93 227t227 93Zm0-320Z"/>
  </symbol>

  <symbol id="sync_problem" height="24px" viewBox="0 -960 960 960" width="24px">
    <path d="M120-160v-80h110l-16-14q-52-46-73-105t-21-119q0-111 66.5-197.5T360-790v84q-72 26-116 88.5T200-478q0 45 17 87.5t53 78.5l10 10v-98h80v240H120Zm331.5-131.5Q440-303 440-320t11.5-28.5Q463-360 480-360t28.5 11.5Q520-337 520-320t-11.5 28.5Q497-280 480-280t-28.5-11.5ZM440-440v-240h80v240h-80Zm160 270v-84q72-26 116-88.5T760-482q0-45-17-87.5T690-648l-10-10v98h-80v-240h240v80H730l16 14q49 49 71.5 106.5T840-482q0 111-66.5 197.5T600-170Z"/>
  </symbol>

  <symbol id="warning" height="24px" viewBox="0 -960 960 960" width="24px">
    <path d="m40-120 440-760 440 760H40Zm138-80h604L480-720 178-200Zm330.5-51.5Q520-263 520-280t-11.5-28.5Q497-320 480-320t-28.5 11.5Q440-297 440-280t11.5 28.5Q463-240 480-240t28.5-11.5ZM440-360h80v-200h-80v200Zm40-100Z"/>
  </symbol>

  <symbol id="hourglass" height="24px" viewBox="0 -960 960 960" width="24px">
    <path d="M320-160h320v-120q0-66-47-113t-113-47q-66 0-113 47t-47 113v120Zm273-407q47-47 47-113v-120H320v120q0 66 47 113t113 47q66 0 113-47ZM160-80v-80h80v-120q0-61 28.5-114.5T348-480q-51-32-79.5-85.5T240-680v-120h-80v-80h640v80h-80v120q0 61-28.5 114.5T612-480q51 32 79.5 85.5T720-280v120h80v80H160Zm320-80Zm0-640Z"/>
  </symbol>

  <symbol id="play_circle" height="24px" viewBox="0 -960 960 960" width="24px">
    <path d="m380-300 280-180-280-180v360ZM480-80q-83 0-156-31.5T197-197q-54-54-85.5-127T80-480q0-83 31.5-156T197-763q54-54 127-85.5T480-880q83 0 156 31.5T763-763q54 54 85.5 127T880-480q0 83-31.5 156T763-197q-54 54-127 85.5T480-80Zm0-80q134 0 227-93t93-227q0-134-93-227t-227-93q-134 0-227 93t-93 227q0 134 93 227t227 93Zm0-320Z"/>
  </symbol>

  <symbol id="schedule" height="24px" viewBox="0 -960 960 960" width="24px">
    <path d="m612-292 56-56-148-148v-184h-80v216l172 172ZM480-80q-83 0-156-31.5T197-197q-54-54-85.5-127T80-480q0-83 31.5-156T197-763q54-54 127-85.5T480-880q83 0 156 31.5T763-763q54 54 85.5 127T880-480q0 83-31.5 156T763-197q-54 54-127 85.5T480-80Zm0-400Zm0 320q133 0 226.5-93.5T800-480q0-133-93.5-226.5T480-800q-133 0-226.5 93.5T160-480q0 133 93.5 226.5T480-160Z"/>
  </symbol>

  <symbol id="timer" height="24px" viewBox="0 -960 960 960" width="24px">
    <path d="M360-840v-80h240v80H360Zm80 440h80v-240h-80v240Zm-99.5 291.5Q275-137 226-186t-77.5-114.5Q120-366 120-440t28.5-139.5Q177-645 226-694t114.5-77.5Q406-800 480-800q62 0 119 20t107 58l56-56 56 56-56 56q38 50 58 107t20 119q0 74-28.5 139.5T734-186q-49 49-114.5 77.5T480-80q-74 0-139.5-28.5ZM678-242q82-82 82-198t-82-198q-82-82-198-82t-198 82q-82 82-82 198t82 198q82 82 198 82t198-82ZM480-440Z"/>
  </symbol>

  <symbol id="timer_off" height="24px" viewBox="0 -960 960 960" width="24px">
    <path d="m798-274-60-60q11-27 16.5-53.5T760-440q0-116-82-198t-198-82q-24 0-51 5t-56 16l-60-60q38-20 80.5-30.5T480-800q60 0 117.5 20T706-722l56-56 56 56-56 56q38 51 58 108.5T840-440q0 42-10.5 83.5T798-274ZM520-552v-88h-80v8l80 80ZM792-56l-96-96q-48 35-103.5 53.5T480-80q-74 0-139.5-28.5T226-186q-49-49-77.5-114.5T120-440q0-60 18.5-115.5T192-656L56-792l56-56 736 736-56 56ZM480-160q42 0 82-13t75-37L248-599q-24 35-36 75t-12 84q0 116 82 198t198 82ZM360-840v-80h240v80H360Zm83 435Zm113-112Z"/>
  </symbol>

  <symbol id="visibility" height="24px" viewBox="0 -960 960 960" width="24px">
    <path d="M607.5-372.5Q660-425 660-500t-52.5-127.5Q555-680 480-680t-127.5 52.5Q300-575 300-500t52.5 127.5Q405-320 480-320t127.5-52.5Zm-204-51Q372-455 372-500t31.5-76.5Q435-608 480-608t76.5 31.5Q588-545 588-500t-31.5 76.5Q525-392 480-392t-76.5-31.5ZM214-281.5Q94-363 40-500q54-137 174-218.5T480-800q146 0 266 81.5T920-500q-54 137-174 218.5T480-200q-146 0-266-81.5ZM480-500Zm207.5 160.5Q782-399 832-500q-50-101-144.5-160.5T480-720q-113 0-207.5 59.5T128-500q50 101 144.5 160.5T480-280q113 0 207.5-59.5Z"/>
  </symbol>

  <symbol id="done_all" height="24px" viewBox="0 -960 960 960" width="24px">
    <path d="M268-240 42-466l57-56 170 170 56 56-57 56Zm226 0L268-466l56-57 170 170 368-368 56 57-424 424Zm0-226-57-56 198-198 57 56-198 198Z"/>
  </symbol>

  <symbol id="description" height="24px" viewBox="0 -960 960 960" width="24px">
    <path d="M320-240h320v-80H320v80Zm0-160h320v-80H320v80ZM240-80q-33 0-56.5-23.5T160-160v-640q0-33 23.5-56.5T240-880h320l240 240v480q0 33-23.5 56.5T720-80H240Zm280-520v-200H240v640h480v-440H520ZM240-800v200-200 640-640Z"/>
  </symbol>

  <symbol id="close" height="24px" viewBox="0 -960 960 960" width="24px">
    <path d="m256-200-56-56 224-224-224-224 56-56 224 224 224-224 56 56-224 224 224 224-56 56-224-224-224 224Z"/>
  </symbol>

  <symbol id="info" height="24px" viewBox="0 -960 960 960" width="24px">
    <path d="M440-280h80v-240h-80v240Zm68.5-331.5Q520-623 520-640t-11.5-28.5Q497-680 480-680t-28.5 11.5Q440-657 440-640t11.5 28.5Q463-600 480-600t28.5-11.5ZM480-80q-83 0-156-31.5T197-197q-54-54-85.5-127T80-480q0-83 31.5-156T197-763q54-54 127-85.5T480-880q83 0 156 31.5T763-763q54 54 85.5 127T880-480q0 83-31.5 156T763-197q-54 54-127 85.5T480-80Zm0-80q134 0 227-93t93-227q0-134-93-227t-227-93q-134 0-227 93t-93 227q0 134 93 227t227 93Zm0-320Z"/>
  </symbol>

  <symbol id="check_circle" height="24px" viewBox="0 -960 960 960" width="24px">
    <path d="m424-296 282-282-56-56-226 226-114-114-56 56 170 170Zm56 216q-83 0-156-31.5T197-197q-54-54-85.5-127T80-480q0-83 31.5-156T197-763q54-54 127-85.5T480-880q83 0 156 31.5T763-763q54 54 85.5 127T880-480q0 83-31.5 156T763-197q-54 54-127 85.5T480-80Zm0-80q134 0 227-93t93-227q0-134-93-227t-227-93q-134 0-227 93t-93 227q0 134 93 227t227 93Zm0-320Z"/>
  </symbol>

  <symbol id="undo" height="24px" viewBox="0 -960 960 960" width="24px">
    <path d="M280-200v-80h284q63 0 109.5-40T720-420q0-60-46.5-100T564-560H312l104 104-56 56-200-200 200-200 56 56-104 104h252q97 0 166.5 63T800-420q0 94-69.5 157T564-200H280Z"/>
  </symbol>

  <symbol id="upload" height="24px" viewBox="0 -960 960 960" width="24px">
    <path d="M440-320v-326L336-542l-56-58 200-200 200 200-56 58-104-104v326h-80ZM240-160q-33 0-56.5-23.5T160-240v-120h80v120h480v-120h80v120q0 33-23.5 56.5T720-160H240Z"/>
  </symbol>

  <symbol id="delete" height="24px" viewBox="0 -960 960 960" width="24px">
    <path d="M280-120q-33 0-56.5-23.5T200-200v-520h-40v-80h200v-40h240v40h200v80h-40v520q0 33-23.5 56.5T680-120H280Zm400-600H280v520h400v-520ZM360-280h80v-360h-80v360Zm160 0h80v-360h-80v360ZM280-720v520-520Z"/>
  </symbol>

  <symbol id="supervisor_account" height="24px" viewBox="0 -960 960 960" width="24px">
    <path d="M609-389q-29-29-29-71t29-71q29-29 71-29t71 29q29 29 29 71t-29 71q-29 29-71 29t-71-29ZM480-160v-56q0-24 12.5-44.5T528-290q36-15 74.5-22.5T680-320q39 0 77.5 7.5T832-290q23 9 35.5 29.5T880-216v56H480ZM287-527q-47-47-47-113t47-113q47-47 113-47t113 47q47 47 47 113t-47 113q-47 47-113 47t-113-47Zm113-113ZM80-160v-112q0-34 17-62.5t47-43.5q60-30 124.5-46T400-440q35 0 70 6t70 14l-34 34-34 34q-18-5-36-6.5t-36-1.5q-58 0-113.5 14T180-306q-10 5-15 14t-5 20v32h240v80H80Zm320-80Zm56.5-343.5Q480-607 480-640t-23.5-56.5Q433-720 400-720t-56.5 23.5Q320-673 320-640t23.5 56.5Q367-560 400-560t56.5-23.5Z"/>
  </symbol>

  <symbol id="save" height="24px" viewBox="0 -960 960 960" width="24px">
    <path d="M840-680v480q0 33-23.5 56.5T760-120H200q-33 0-56.5-23.5T120-200v-560q0-33 23.5-56.5T200-840h480l160 160Zm-80 34L646-760H200v560h560v-446ZM565-275q35-35 35-85t-35-85q-35-35-85-35t-85 35q-35 35-35 85t35 85q35 35 85 35t85-35ZM240-560h360v-160H240v160Zm-40-86v446-560 114Z"/>
  </symbol>

  <symbol id="download" height="24px" viewBox="0 -960 960 960" width="24px">
    <path d="M480-320 280-520l56-58 104 104v-326h80v326l104-104 56 58-200 200ZM240-160q-33 0-56.5-23.5T160-240v-120h80v120h480v-120h80v120q0 33-23.5 56.5T720-160H240Z"/>
  </symbol>

  <symbol id="collapse_all" height="24px" viewBox="0 -960 960 960" width="24px">
    <path d="m296-80-56-56 240-240 240 240-56 56-184-184L296-80Zm184-504L240-824l56-56 184 184 184-184 56 56-240 240Z"/>
  </symbol>

  <symbol id="expand_all" height="24px" viewBox="0 -960 960 960" width="24px">
    <path d="M480-80 240-320l57-57 183 183 183-183 57 57L480-80ZM298-584l-58-56 240-240 240 240-58 56-182-182-182 182Z"/>
  </symbol>

  <symbol id="library_books" height="24px" viewBox="0 -960 960 960" width="24px">
    <path d="M400-400h160v-80H400v80Zm0-120h320v-80H400v80Zm0-120h320v-80H400v80Zm-80 400q-33 0-56.5-23.5T240-320v-480q0-33 23.5-56.5T320-880h480q33 0 56.5 23.5T880-800v480q0 33-23.5 56.5T800-240H320Zm0-80h480v-480H320v480ZM160-80q-33 0-56.5-23.5T80-160v-560h80v560h560v80H160Zm160-720v480-480Z"/>
  </symbol>

  <symbol id="menu" height="24px" viewBox="0 -960 960 960" width="24px">
    <path d="M120-240v-80h720v80H120Zm0-200v-80h720v80H120Zm0-200v-80h720v80H120Z"/>
  </symbol>

  <symbol id="photo_camera" height="24px" viewBox="0 -960 960 960" width="24px">
    <path d="M480-260q75 0 127.5-52.5T660-440q0-75-52.5-127.5T480-620q-75 0-127.5 52.5T300-440q0 75 52.5 127.5T480-260Zm0-80q-42 0-71-29t-29-71q0-42 29-71t71-29q42 0 71 29t29 71q0 42-29 71t-71 29ZM160-120q-33 0-56.5-23.5T80-200v-480q0-33 23.5-56.5T160-760h126l74-80h240l74 80h126q33 0 56.5 23.5T880-680v480q0 33-23.5 56.5T800-120H160Zm0-80h640v-480H638l-73-80H395l-73 80H160v480Zm320-240Z"/>
  </symbol>
</svg>