<?xml version="1.0" encoding="UTF-8" standalone="no"?>
<!DOCTYPE svg PUBLIC "-//W3C//DTD SVG 1.1//EN"
 "http://www.w3.org/Graphics/SVG/1.1/DTD/svg11.dtd">
<!-- Generated by graphviz version 3.0.0 (20220226.1711)
 -->
<!-- Title: dependencies Pages: 1 -->
<svg width="2034pt" height="174pt"
 viewBox="0.00 0.00 2034.00 173.80" xmlns="http://www.w3.org/2000/svg" xmlns:xlink="http://www.w3.org/1999/xlink">
<g id="graph0" class="graph" transform="scale(1 1) rotate(0) translate(4 169.8)">
<title>dependencies</title>
<polygon fill="white" stroke="transparent" points="-4,4 -4,-169.8 2030,-169.8 2030,4 -4,4"/>
<text text-anchor="middle" x="1013" y="-8.2" font-family="sans-serif" font-size="14.00">dependencies</text>
<g id="clust1" class="cluster">
<title>cluster_SysCheckModule</title>
<polygon fill="none" stroke="black" stroke-dasharray="1,5" points="8,-32.8 8,-157.8 2018,-157.8 2018,-32.8 8,-32.8"/>
</g>
<g id="clust2" class="cluster">
<title>cluster_SysCheckModule_declarations</title>
<polygon fill="none" stroke="black" points="701,-40.8 701,-92.8 2010,-92.8 2010,-40.8 701,-40.8"/>
</g>
<g id="clust14" class="cluster">
<title>cluster_SysCheckModule_providers</title>
<polygon fill="none" stroke="black" points="317,-40.8 317,-92.8 693,-92.8 693,-40.8 317,-40.8"/>
</g>
<g id="clust11" class="cluster">
<title>cluster_SysCheckModule_imports</title>
<polygon fill="none" stroke="black" points="16,-40.8 16,-92.8 309,-92.8 309,-40.8 16,-40.8"/>
</g>
<!-- NetworkCheckComponent -->
<g id="node1" class="node">
<title>NetworkCheckComponent</title>
<polygon fill="#ffffb3" stroke="black" points="2002.08,-84.8 1835.92,-84.8 1835.92,-48.8 2002.08,-48.8 2002.08,-84.8"/>
<text text-anchor="middle" x="1919" y="-62.6" font-family="Times,serif" font-size="14.00">NetworkCheckComponent</text>
</g>
<!-- SysCheckModule -->
<g id="node9" class="node">
<title>SysCheckModule</title>
<polygon fill="#8dd3c7" stroke="black" points="1074.55,-149.8 1071.55,-153.8 1050.55,-153.8 1047.55,-149.8 959.45,-149.8 959.45,-113.8 1074.55,-113.8 1074.55,-149.8"/>
<text text-anchor="middle" x="1017" y="-127.6" font-family="Times,serif" font-size="14.00">SysCheckModule</text>
</g>
<!-- NetworkCheckComponent&#45;&gt;SysCheckModule -->
<g id="edge1" class="edge">
<title>NetworkCheckComponent&#45;&gt;SysCheckModule</title>
<path fill="none" stroke="black" d="M1919,-84.89C1919,-107.93 1919,-144.8 1919,-144.8 1919,-144.8 1084.8,-144.8 1084.8,-144.8"/>
<polygon fill="black" stroke="black" points="1084.8,-141.3 1074.8,-144.8 1084.8,-148.3 1084.8,-141.3"/>
</g>
<!-- QuestionnaireComponent -->
<g id="node2" class="node">
<title>QuestionnaireComponent</title>
<polygon fill="#ffffb3" stroke="black" points="1817.86,-84.8 1658.14,-84.8 1658.14,-48.8 1817.86,-48.8 1817.86,-84.8"/>
<text text-anchor="middle" x="1738" y="-62.6" font-family="Times,serif" font-size="14.00">QuestionnaireComponent</text>
</g>
<!-- QuestionnaireComponent&#45;&gt;SysCheckModule -->
<g id="edge2" class="edge">
<title>QuestionnaireComponent&#45;&gt;SysCheckModule</title>
<path fill="none" stroke="black" d="M1738,-85.08C1738,-106.12 1738,-137.8 1738,-137.8 1738,-137.8 1084.78,-137.8 1084.78,-137.8"/>
<polygon fill="black" stroke="black" points="1084.78,-134.3 1074.78,-137.8 1084.78,-141.3 1084.78,-134.3"/>
</g>
<!-- ReportComponent -->
<g id="node3" class="node">
<title>ReportComponent</title>
<polygon fill="#ffffb3" stroke="black" points="1639.94,-84.8 1520.06,-84.8 1520.06,-48.8 1639.94,-48.8 1639.94,-84.8"/>
<text text-anchor="middle" x="1580" y="-62.6" font-family="Times,serif" font-size="14.00">ReportComponent</text>
</g>
<!-- ReportComponent&#45;&gt;SysCheckModule -->
<g id="edge3" class="edge">
<title>ReportComponent&#45;&gt;SysCheckModule</title>
<path fill="none" stroke="black" d="M1580,-84.91C1580,-104.14 1580,-131.8 1580,-131.8 1580,-131.8 1084.61,-131.8 1084.61,-131.8"/>
<polygon fill="black" stroke="black" points="1084.61,-128.3 1074.61,-131.8 1084.61,-135.3 1084.61,-128.3"/>
</g>
<!-- SaveReportComponent -->
<g id="node4" class="node">
<title>SaveReportComponent</title>
<polygon fill="#ffffb3" stroke="black" points="1502.15,-84.8 1355.85,-84.8 1355.85,-48.8 1502.15,-48.8 1502.15,-84.8"/>
<text text-anchor="middle" x="1429" y="-62.6" font-family="Times,serif" font-size="14.00">SaveReportComponent</text>
</g>
<!-- SaveReportComponent&#45;&gt;SysCheckModule -->
<g id="edge4" class="edge">
<title>SaveReportComponent&#45;&gt;SysCheckModule</title>
<path fill="none" stroke="black" d="M1429,-84.82C1429,-102.17 1429,-125.8 1429,-125.8 1429,-125.8 1084.72,-125.8 1084.72,-125.8"/>
<polygon fill="black" stroke="black" points="1084.72,-122.3 1074.72,-125.8 1084.72,-129.3 1084.72,-122.3"/>
</g>
<!-- SysCheckComponent -->
<g id="node5" class="node">
<title>SysCheckComponent</title>
<polygon fill="#ffffb3" stroke="black" points="1337.83,-84.8 1200.17,-84.8 1200.17,-48.8 1337.83,-48.8 1337.83,-84.8"/>
<text text-anchor="middle" x="1269" y="-62.6" font-family="Times,serif" font-size="14.00">SysCheckComponent</text>
</g>
<!-- SysCheckComponent&#45;&gt;SysCheckModule -->
<g id="edge5" class="edge">
<title>SysCheckComponent&#45;&gt;SysCheckModule</title>
<path fill="none" stroke="black" d="M1269,-85.04C1269,-100.37 1269,-119.8 1269,-119.8 1269,-119.8 1084.81,-119.8 1084.81,-119.8"/>
<polygon fill="black" stroke="black" points="1084.81,-116.3 1074.81,-119.8 1084.81,-123.3 1084.81,-116.3"/>
</g>
<!-- TcSpeedChartComponent -->
<g id="node6" class="node">
<title>TcSpeedChartComponent</title>
<polygon fill="#ffffb3" stroke="black" points="1182.91,-84.8 1021.09,-84.8 1021.09,-48.8 1182.91,-48.8 1182.91,-84.8"/>
<text text-anchor="middle" x="1102" y="-62.6" font-family="Times,serif" font-size="14.00">TcSpeedChartComponent</text>
</g>
<!-- TcSpeedChartComponent&#45;&gt;SysCheckModule -->
<g id="edge6" class="edge">
<title>TcSpeedChartComponent&#45;&gt;SysCheckModule</title>
<path fill="none" stroke="black" d="M1048.03,-84.91C1048.03,-84.91 1048.03,-103.79 1048.03,-103.79"/>
<polygon fill="black" stroke="black" points="1044.53,-103.79 1048.03,-113.79 1051.53,-103.79 1044.53,-103.79"/>
</g>
<!-- UnitCheckComponent -->
<g id="node7" class="node">
<title>UnitCheckComponent</title>
<polygon fill="#ffffb3" stroke="black" points="1002.99,-84.8 861.01,-84.8 861.01,-48.8 1002.99,-48.8 1002.99,-84.8"/>
<text text-anchor="middle" x="932" y="-62.6" font-family="Times,serif" font-size="14.00">UnitCheckComponent</text>
</g>
<!-- UnitCheckComponent&#45;&gt;SysCheckModule -->
<g id="edge7" class="edge">
<title>UnitCheckComponent&#45;&gt;SysCheckModule</title>
<path fill="none" stroke="black" d="M981.11,-84.91C981.11,-84.91 981.11,-103.79 981.11,-103.79"/>
<polygon fill="black" stroke="black" points="977.61,-103.79 981.11,-113.79 984.61,-103.79 977.61,-103.79"/>
</g>
<!-- WelcomeComponent -->
<g id="node8" class="node">
<title>WelcomeComponent</title>
<polygon fill="#ffffb3" stroke="black" points="843.47,-84.8 708.53,-84.8 708.53,-48.8 843.47,-48.8 843.47,-84.8"/>
<text text-anchor="middle" x="776" y="-62.6" font-family="Times,serif" font-size="14.00">WelcomeComponent</text>
</g>
<!-- WelcomeComponent&#45;&gt;SysCheckModule -->
<g id="edge8" class="edge">
<title>WelcomeComponent&#45;&gt;SysCheckModule</title>
<path fill="none" stroke="black" d="M776,-85.04C776,-100.37 776,-119.8 776,-119.8 776,-119.8 949.27,-119.8 949.27,-119.8"/>
<polygon fill="black" stroke="black" points="949.27,-123.3 959.27,-119.8 949.27,-116.3 949.27,-123.3"/>
</g>
<!-- SharedModule -->
<g id="node10" class="node">
<title>SharedModule</title>
<polygon fill="#8dd3c7" stroke="black" points="301.43,-84.8 298.43,-88.8 277.43,-88.8 274.43,-84.8 202.57,-84.8 202.57,-48.8 301.43,-48.8 301.43,-84.8"/>
<text text-anchor="middle" x="252" y="-62.6" font-family="Times,serif" font-size="14.00">SharedModule</text>
</g>
<!-- SharedModule&#45;&gt;SysCheckModule -->
<g id="edge9" class="edge">
<title>SharedModule&#45;&gt;SysCheckModule</title>
<path fill="none" stroke="black" d="M252,-85.08C252,-106.12 252,-137.8 252,-137.8 252,-137.8 949.19,-137.8 949.19,-137.8"/>
<polygon fill="black" stroke="black" points="949.19,-141.3 959.19,-137.8 949.19,-134.3 949.19,-141.3"/>
</g>
<!-- SysCheckRoutingModule -->
<g id="node11" class="node">
<title>SysCheckRoutingModule</title>
<polygon fill="#8dd3c7" stroke="black" points="184.17,-84.8 181.17,-88.8 160.17,-88.8 157.17,-84.8 23.83,-84.8 23.83,-48.8 184.17,-48.8 184.17,-84.8"/>
<text text-anchor="middle" x="104" y="-62.6" font-family="Times,serif" font-size="14.00">SysCheckRoutingModule</text>
</g>
<!-- SysCheckRoutingModule&#45;&gt;SysCheckModule -->
<g id="edge10" class="edge">
<title>SysCheckRoutingModule&#45;&gt;SysCheckModule</title>
<path fill="none" stroke="black" d="M104,-84.89C104,-107.93 104,-144.8 104,-144.8 104,-144.8 949.2,-144.8 949.2,-144.8"/>
<polygon fill="black" stroke="black" points="949.2,-148.3 959.2,-144.8 949.2,-141.3 949.2,-148.3"/>
</g>
<!-- BackendService -->
<g id="node12" class="node">
<title>BackendService</title>
<ellipse fill="#fdb462" stroke="black" cx="611" cy="-66.8" rx="73.56" ry="18"/>
<text text-anchor="middle" x="611" y="-62.6" font-family="Times,serif" font-size="14.00">BackendService</text>
</g>
<!-- BackendService&#45;&gt;SysCheckModule -->
<g id="edge11" class="edge">
<title>BackendService&#45;&gt;SysCheckModule</title>
<path fill="none" stroke="black" d="M611,-84.82C611,-102.17 611,-125.8 611,-125.8 611,-125.8 949.26,-125.8 949.26,-125.8"/>
<polygon fill="black" stroke="black" points="949.26,-129.3 959.26,-125.8 949.26,-122.3 949.26,-129.3"/>
</g>
<!-- SysCheckDataService -->
<g id="node13" class="node">
<title>SysCheckDataService</title>
<ellipse fill="#fdb462" stroke="black" cx="422" cy="-66.8" rx="96.7" ry="18"/>
<text text-anchor="middle" x="422" y="-62.6" font-family="Times,serif" font-size="14.00">SysCheckDataService</text>
</g>
<!-- SysCheckDataService&#45;&gt;SysCheckModule -->
<g id="edge12" class="edge">
<title>SysCheckDataService&#45;&gt;SysCheckModule</title>
<path fill="none" stroke="black" d="M422,-84.91C422,-104.14 422,-131.8 422,-131.8 422,-131.8 949.41,-131.8 949.41,-131.8"/>
<polygon fill="black" stroke="black" points="949.41,-135.3 959.41,-131.8 949.41,-128.3 949.41,-135.3"/>
</g>
</g>
</svg>
