<?xml version="1.0" encoding="UTF-8" standalone="no"?>
<!DOCTYPE svg PUBLIC "-//W3C//DTD SVG 1.1//EN"
 "http://www.w3.org/Graphics/SVG/1.1/DTD/svg11.dtd">
<!-- Generated by graphviz version 2.47.3 (20210619.1520)
 -->
<!-- Title: dependencies Pages: 1 -->
<svg width="2034pt" height="174pt"
 viewBox="0.00 0.00 2034.00 173.80" xmlns="http://www.w3.org/2000/svg" xmlns:xlink="http://www.w3.org/1999/xlink">
<g id="graph0" class="graph" transform="scale(1 1) rotate(0) translate(4 169.8)">
<title>dependencies</title>
<polygon fill="white" stroke="transparent" points="-4,4 -4,-169.8 2030,-169.8 2030,4 -4,4"/>
<text text-anchor="middle" x="1013" y="-8.2" font-family="sans-serif" font-size="14.00">dependencies</text>
<g id="clust1" class="cluster">
<title>cluster_SysCheckModule</title>
<polygon fill="none" stroke="black" stroke-dasharray="1,5" points="8,-32.8 8,-157.8 2018,-157.8 2018,-32.8 8,-32.8"/>
</g>
<g id="clust11" class="cluster">
<title>cluster_SysCheckModule_imports</title>
<polygon fill="none" stroke="black" points="1717,-40.8 1717,-92.8 2010,-92.8 2010,-40.8 1717,-40.8"/>
</g>
<g id="clust2" class="cluster">
<title>cluster_SysCheckModule_declarations</title>
<polygon fill="none" stroke="black" points="400,-40.8 400,-92.8 1709,-92.8 1709,-40.8 400,-40.8"/>
</g>
<g id="clust14" class="cluster">
<title>cluster_SysCheckModule_providers</title>
<polygon fill="none" stroke="black" points="16,-40.8 16,-92.8 392,-92.8 392,-40.8 16,-40.8"/>
</g>
<!-- NetworkCheckComponent -->
<g id="node1" class="node">
<title>NetworkCheckComponent</title>
<polygon fill="#ffffb3" stroke="black" points="1701.08,-84.8 1534.92,-84.8 1534.92,-48.8 1701.08,-48.8 1701.08,-84.8"/>
<text text-anchor="middle" x="1618" y="-62.6" font-family="Times,serif" font-size="14.00">NetworkCheckComponent</text>
</g>
<!-- SysCheckModule -->
<g id="node9" class="node">
<title>SysCheckModule</title>
<polygon fill="#8dd3c7" stroke="black" points="1105.54,-149.8 1102.54,-153.8 1081.54,-153.8 1078.54,-149.8 990.46,-149.8 990.46,-113.8 1105.54,-113.8 1105.54,-149.8"/>
<text text-anchor="middle" x="1048" y="-127.6" font-family="Times,serif" font-size="14.00">SysCheckModule</text>
</g>
<!-- NetworkCheckComponent&#45;&gt;SysCheckModule -->
<g id="edge1" class="edge">
<title>NetworkCheckComponent&#45;&gt;SysCheckModule</title>
<path fill="none" stroke="black" d="M1618,-84.91C1618,-104.14 1618,-131.8 1618,-131.8 1618,-131.8 1115.79,-131.8 1115.79,-131.8"/>
<polygon fill="black" stroke="black" points="1115.79,-128.3 1105.79,-131.8 1115.79,-135.3 1115.79,-128.3"/>
</g>
<!-- QuestionnaireComponent -->
<g id="node2" class="node">
<title>QuestionnaireComponent</title>
<polygon fill="#ffffb3" stroke="black" points="1516.86,-84.8 1357.14,-84.8 1357.14,-48.8 1516.86,-48.8 1516.86,-84.8"/>
<text text-anchor="middle" x="1437" y="-62.6" font-family="Times,serif" font-size="14.00">QuestionnaireComponent</text>
</g>
<!-- QuestionnaireComponent&#45;&gt;SysCheckModule -->
<g id="edge2" class="edge">
<title>QuestionnaireComponent&#45;&gt;SysCheckModule</title>
<path fill="none" stroke="black" d="M1437,-84.82C1437,-102.17 1437,-125.8 1437,-125.8 1437,-125.8 1115.82,-125.8 1115.82,-125.8"/>
<polygon fill="black" stroke="black" points="1115.82,-122.3 1105.82,-125.8 1115.82,-129.3 1115.82,-122.3"/>
</g>
<!-- ReportComponent -->
<g id="node3" class="node">
<title>ReportComponent</title>
<polygon fill="#ffffb3" stroke="black" points="1338.94,-84.8 1219.06,-84.8 1219.06,-48.8 1338.94,-48.8 1338.94,-84.8"/>
<text text-anchor="middle" x="1279" y="-62.6" font-family="Times,serif" font-size="14.00">ReportComponent</text>
</g>
<!-- ReportComponent&#45;&gt;SysCheckModule -->
<g id="edge3" class="edge">
<title>ReportComponent&#45;&gt;SysCheckModule</title>
<path fill="none" stroke="black" d="M1279,-85.04C1279,-100.37 1279,-119.8 1279,-119.8 1279,-119.8 1115.7,-119.8 1115.7,-119.8"/>
<polygon fill="black" stroke="black" points="1115.7,-116.3 1105.7,-119.8 1115.7,-123.3 1115.7,-116.3"/>
</g>
<!-- SaveReportComponent -->
<g id="node4" class="node">
<title>SaveReportComponent</title>
<polygon fill="#ffffb3" stroke="black" points="1201.15,-84.8 1054.85,-84.8 1054.85,-48.8 1201.15,-48.8 1201.15,-84.8"/>
<text text-anchor="middle" x="1128" y="-62.6" font-family="Times,serif" font-size="14.00">SaveReportComponent</text>
</g>
<!-- SaveReportComponent&#45;&gt;SysCheckModule -->
<g id="edge4" class="edge">
<title>SaveReportComponent&#45;&gt;SysCheckModule</title>
<path fill="none" stroke="black" d="M1080.22,-84.91C1080.22,-84.91 1080.22,-103.79 1080.22,-103.79"/>
<polygon fill="black" stroke="black" points="1076.72,-103.79 1080.22,-113.79 1083.72,-103.79 1076.72,-103.79"/>
</g>
<!-- SysCheckComponent -->
<g id="node5" class="node">
<title>SysCheckComponent</title>
<polygon fill="#ffffb3" stroke="black" points="1036.83,-84.8 899.17,-84.8 899.17,-48.8 1036.83,-48.8 1036.83,-84.8"/>
<text text-anchor="middle" x="968" y="-62.6" font-family="Times,serif" font-size="14.00">SysCheckComponent</text>
</g>
<!-- SysCheckComponent&#45;&gt;SysCheckModule -->
<g id="edge5" class="edge">
<title>SysCheckComponent&#45;&gt;SysCheckModule</title>
<path fill="none" stroke="black" d="M1013.45,-84.91C1013.45,-84.91 1013.45,-103.79 1013.45,-103.79"/>
<polygon fill="black" stroke="black" points="1009.95,-103.79 1013.45,-113.79 1016.95,-103.79 1009.95,-103.79"/>
</g>
<!-- TcSpeedChartComponent -->
<g id="node6" class="node">
<title>TcSpeedChartComponent</title>
<polygon fill="#ffffb3" stroke="black" points="881.91,-84.8 720.09,-84.8 720.09,-48.8 881.91,-48.8 881.91,-84.8"/>
<text text-anchor="middle" x="801" y="-62.6" font-family="Times,serif" font-size="14.00">TcSpeedChartComponent</text>
</g>
<!-- TcSpeedChartComponent&#45;&gt;SysCheckModule -->
<g id="edge6" class="edge">
<title>TcSpeedChartComponent&#45;&gt;SysCheckModule</title>
<path fill="none" stroke="black" d="M801,-85.04C801,-100.37 801,-119.8 801,-119.8 801,-119.8 980.4,-119.8 980.4,-119.8"/>
<polygon fill="black" stroke="black" points="980.4,-123.3 990.4,-119.8 980.4,-116.3 980.4,-123.3"/>
</g>
<!-- UnitCheckComponent -->
<g id="node7" class="node">
<title>UnitCheckComponent</title>
<polygon fill="#ffffb3" stroke="black" points="701.99,-84.8 560.01,-84.8 560.01,-48.8 701.99,-48.8 701.99,-84.8"/>
<text text-anchor="middle" x="631" y="-62.6" font-family="Times,serif" font-size="14.00">UnitCheckComponent</text>
</g>
<!-- UnitCheckComponent&#45;&gt;SysCheckModule -->
<g id="edge7" class="edge">
<title>UnitCheckComponent&#45;&gt;SysCheckModule</title>
<path fill="none" stroke="black" d="M631,-84.82C631,-102.17 631,-125.8 631,-125.8 631,-125.8 980.46,-125.8 980.46,-125.8"/>
<polygon fill="black" stroke="black" points="980.46,-129.3 990.46,-125.8 980.46,-122.3 980.46,-129.3"/>
</g>
<!-- WelcomeComponent -->
<g id="node8" class="node">
<title>WelcomeComponent</title>
<polygon fill="#ffffb3" stroke="black" points="542.47,-84.8 407.53,-84.8 407.53,-48.8 542.47,-48.8 542.47,-84.8"/>
<text text-anchor="middle" x="475" y="-62.6" font-family="Times,serif" font-size="14.00">WelcomeComponent</text>
</g>
<!-- WelcomeComponent&#45;&gt;SysCheckModule -->
<g id="edge8" class="edge">
<title>WelcomeComponent&#45;&gt;SysCheckModule</title>
<path fill="none" stroke="black" d="M475,-84.91C475,-104.14 475,-131.8 475,-131.8 475,-131.8 980.44,-131.8 980.44,-131.8"/>
<polygon fill="black" stroke="black" points="980.44,-135.3 990.44,-131.8 980.44,-128.3 980.44,-135.3"/>
</g>
<!-- SharedModule -->
<g id="node10" class="node">
<title>SharedModule</title>
<polygon fill="#8dd3c7" stroke="black" points="2002.42,-84.8 1999.42,-88.8 1978.42,-88.8 1975.42,-84.8 1903.58,-84.8 1903.58,-48.8 2002.42,-48.8 2002.42,-84.8"/>
<text text-anchor="middle" x="1953" y="-62.6" font-family="Times,serif" font-size="14.00">SharedModule</text>
</g>
<!-- SharedModule&#45;&gt;SysCheckModule -->
<g id="edge9" class="edge">
<title>SharedModule&#45;&gt;SysCheckModule</title>
<path fill="none" stroke="black" d="M1953,-84.89C1953,-107.93 1953,-144.8 1953,-144.8 1953,-144.8 1115.64,-144.8 1115.64,-144.8"/>
<polygon fill="black" stroke="black" points="1115.64,-141.3 1105.64,-144.8 1115.64,-148.3 1115.64,-141.3"/>
</g>
<!-- SysCheckRoutingModule -->
<g id="node11" class="node">
<title>SysCheckRoutingModule</title>
<polygon fill="#8dd3c7" stroke="black" points="1885.16,-84.8 1882.16,-88.8 1861.16,-88.8 1858.16,-84.8 1724.84,-84.8 1724.84,-48.8 1885.16,-48.8 1885.16,-84.8"/>
<text text-anchor="middle" x="1805" y="-62.6" font-family="Times,serif" font-size="14.00">SysCheckRoutingModule</text>
</g>
<!-- SysCheckRoutingModule&#45;&gt;SysCheckModule -->
<g id="edge10" class="edge">
<title>SysCheckRoutingModule&#45;&gt;SysCheckModule</title>
<path fill="none" stroke="black" d="M1805,-85.08C1805,-106.12 1805,-137.8 1805,-137.8 1805,-137.8 1115.83,-137.8 1115.83,-137.8"/>
<polygon fill="black" stroke="black" points="1115.83,-134.3 1105.83,-137.8 1115.83,-141.3 1115.83,-134.3"/>
</g>
<!-- BackendService -->
<g id="node12" class="node">
<title>BackendService</title>
<ellipse fill="#fdb462" stroke="black" cx="310" cy="-66.8" rx="73.56" ry="18"/>
<text text-anchor="middle" x="310" y="-62.6" font-family="Times,serif" font-size="14.00">BackendService</text>
</g>
<!-- BackendService&#45;&gt;SysCheckModule -->
<g id="edge11" class="edge">
<title>BackendService&#45;&gt;SysCheckModule</title>
<path fill="none" stroke="black" d="M310,-85.08C310,-106.12 310,-137.8 310,-137.8 310,-137.8 980.4,-137.8 980.4,-137.8"/>
<polygon fill="black" stroke="black" points="980.4,-141.3 990.4,-137.8 980.4,-134.3 980.4,-141.3"/>
</g>
<!-- SysCheckDataService -->
<g id="node13" class="node">
<title>SysCheckDataService</title>
<ellipse fill="#fdb462" stroke="black" cx="121" cy="-66.8" rx="96.69" ry="18"/>
<text text-anchor="middle" x="121" y="-62.6" font-family="Times,serif" font-size="14.00">SysCheckDataService</text>
</g>
<!-- SysCheckDataService&#45;&gt;SysCheckModule -->
<g id="edge12" class="edge">
<title>SysCheckDataService&#45;&gt;SysCheckModule</title>
<path fill="none" stroke="black" d="M121,-84.89C121,-107.93 121,-144.8 121,-144.8 121,-144.8 980.36,-144.8 980.36,-144.8"/>
<polygon fill="black" stroke="black" points="980.36,-148.3 990.36,-144.8 980.36,-141.3 980.36,-148.3"/>
</g>
</g>
</svg>
