<?xml version="1.0" encoding="UTF-8" standalone="no"?>
<!DOCTYPE svg PUBLIC "-//W3C//DTD SVG 1.1//EN"
 "http://www.w3.org/Graphics/SVG/1.1/DTD/svg11.dtd">
<!-- Generated by graphviz version 3.0.0 (20220226.1711)
 -->
<!-- Title: dependencies Pages: 1 -->
<svg width="983pt" height="247pt"
 viewBox="0.00 0.00 983.00 246.80" xmlns="http://www.w3.org/2000/svg" xmlns:xlink="http://www.w3.org/1999/xlink">
<g id="graph0" class="graph" transform="scale(1 1) rotate(0) translate(4 242.8)">
<title>dependencies</title>
<polygon fill="white" stroke="transparent" points="-4,4 -4,-242.8 979,-242.8 979,4 -4,4"/>
<text text-anchor="middle" x="487.5" y="-8.2" font-family="sans-serif" font-size="14.00">dependencies</text>
<g id="clust1" class="cluster">
<title>cluster_TestControllerModule</title>
<polygon fill="none" stroke="black" stroke-dasharray="1,5" points="8,-32.8 8,-230.8 967,-230.8 967,-32.8 8,-32.8"/>
</g>
<g id="clust2" class="cluster">
<title>cluster_TestControllerModule_declarations</title>
<polygon fill="none" stroke="black" points="138,-40.8 138,-92.8 959,-92.8 959,-40.8 138,-40.8"/>
</g>
<g id="clust9" class="cluster">
<title>cluster_TestControllerModule_exports</title>
<polygon fill="none" stroke="black" points="350,-170.8 350,-222.8 532,-222.8 532,-170.8 350,-170.8"/>
</g>
<g id="clust8" class="cluster">
<title>cluster_TestControllerModule_imports</title>
<polygon fill="none" stroke="black" points="16,-40.8 16,-92.8 130,-92.8 130,-40.8 16,-40.8"/>
</g>
<!-- ReviewDialogComponent -->
<g id="node1" class="node">
<title>ReviewDialogComponent</title>
<polygon fill="#ffffb3" stroke="black" points="951.2,-84.8 788.8,-84.8 788.8,-48.8 951.2,-48.8 951.2,-84.8"/>
<text text-anchor="middle" x="870" y="-62.6" font-family="Times,serif" font-size="14.00">ReviewDialogComponent</text>
</g>
<!-- TestControllerModule -->
<g id="node6" class="node">
<title>TestControllerModule</title>
<polygon fill="#8dd3c7" stroke="black" points="511.7,-149.8 508.7,-153.8 487.7,-153.8 484.7,-149.8 370.3,-149.8 370.3,-113.8 511.7,-113.8 511.7,-149.8"/>
<text text-anchor="middle" x="441" y="-127.6" font-family="Times,serif" font-size="14.00">TestControllerModule</text>
</g>
<!-- ReviewDialogComponent&#45;&gt;TestControllerModule -->
<g id="edge1" class="edge">
<title>ReviewDialogComponent&#45;&gt;TestControllerModule</title>
<path fill="none" stroke="black" d="M870,-85.08C870,-106.12 870,-137.8 870,-137.8 870,-137.8 521.84,-137.8 521.84,-137.8"/>
<polygon fill="black" stroke="black" points="521.84,-134.3 511.84,-137.8 521.84,-141.3 521.84,-134.3"/>
</g>
<!-- TestControllerComponent -->
<g id="node2" class="node">
<title>TestControllerComponent</title>
<polygon fill="#ffffb3" stroke="black" points="770.48,-84.8 607.52,-84.8 607.52,-48.8 770.48,-48.8 770.48,-84.8"/>
<text text-anchor="middle" x="689" y="-62.6" font-family="Times,serif" font-size="14.00">TestControllerComponent</text>
</g>
<!-- TestControllerComponent&#45;&gt;TestControllerModule -->
<g id="edge2" class="edge">
<title>TestControllerComponent&#45;&gt;TestControllerModule</title>
<path fill="none" stroke="black" d="M689,-84.82C689,-102.17 689,-125.8 689,-125.8 689,-125.8 521.73,-125.8 521.73,-125.8"/>
<polygon fill="black" stroke="black" points="521.73,-122.3 511.73,-125.8 521.73,-129.3 521.73,-122.3"/>
</g>
<!-- TestStatusComponent -->
<g id="node3" class="node">
<title>TestStatusComponent</title>
<polygon fill="#ffffb3" stroke="black" points="589.66,-84.8 450.34,-84.8 450.34,-48.8 589.66,-48.8 589.66,-84.8"/>
<text text-anchor="middle" x="520" y="-62.6" font-family="Times,serif" font-size="14.00">TestStatusComponent</text>
</g>
<!-- TestStatusComponent&#45;&gt;TestControllerModule -->
<g id="edge3" class="edge">
<title>TestStatusComponent&#45;&gt;TestControllerModule</title>
<path fill="none" stroke="black" d="M480.88,-84.91C480.88,-84.91 480.88,-103.79 480.88,-103.79"/>
<polygon fill="black" stroke="black" points="477.38,-103.79 480.88,-113.79 484.38,-103.79 477.38,-103.79"/>
</g>
<!-- UnitMenuComponent -->
<g id="node4" class="node">
<title>UnitMenuComponent</title>
<polygon fill="#ffffb3" stroke="black" points="432.38,-84.8 293.62,-84.8 293.62,-48.8 432.38,-48.8 432.38,-84.8"/>
<text text-anchor="middle" x="363" y="-62.6" font-family="Times,serif" font-size="14.00">UnitMenuComponent</text>
</g>
<!-- UnitMenuComponent&#45;&gt;TestControllerModule -->
<g id="edge4" class="edge">
<title>UnitMenuComponent&#45;&gt;TestControllerModule</title>
<path fill="none" stroke="black" d="M401.42,-84.91C401.42,-84.91 401.42,-103.79 401.42,-103.79"/>
<polygon fill="black" stroke="black" points="397.92,-103.79 401.42,-113.79 404.92,-103.79 397.92,-103.79"/>
</g>
<!-- UnithostComponent -->
<g id="node5" class="node">
<title>UnithostComponent</title>
<polygon fill="#ffffb3" stroke="black" points="275.56,-84.8 146.44,-84.8 146.44,-48.8 275.56,-48.8 275.56,-84.8"/>
<text text-anchor="middle" x="211" y="-62.6" font-family="Times,serif" font-size="14.00">UnithostComponent</text>
</g>
<!-- UnithostComponent&#45;&gt;TestControllerModule -->
<g id="edge5" class="edge">
<title>UnithostComponent&#45;&gt;TestControllerModule</title>
<path fill="none" stroke="black" d="M211,-84.82C211,-102.17 211,-125.8 211,-125.8 211,-125.8 360.12,-125.8 360.12,-125.8"/>
<polygon fill="black" stroke="black" points="360.12,-129.3 370.12,-125.8 360.12,-122.3 360.12,-129.3"/>
</g>
<!-- TestControllerComponent  -->
<g id="node8" class="node">
<title>TestControllerComponent </title>
<polygon fill="#fb8072" stroke="black" points="524.48,-214.8 357.52,-214.8 357.52,-178.8 524.48,-178.8 524.48,-214.8"/>
<text text-anchor="middle" x="441" y="-192.6" font-family="Times,serif" font-size="14.00">TestControllerComponent </text>
</g>
<!-- TestControllerModule&#45;&gt;TestControllerComponent  -->
<g id="edge7" class="edge">
<title>TestControllerModule&#45;&gt;TestControllerComponent </title>
<path fill="none" stroke="black" stroke-dasharray="5,2" d="M441,-149.91C441,-149.91 441,-168.79 441,-168.79"/>
<polygon fill="black" stroke="black" points="437.5,-168.79 441,-178.79 444.5,-168.79 437.5,-168.79"/>
</g>
<!-- SharedModule -->
<g id="node7" class="node">
<title>SharedModule</title>
<polygon fill="#8dd3c7" stroke="black" points="122.43,-84.8 119.43,-88.8 98.43,-88.8 95.43,-84.8 23.57,-84.8 23.57,-48.8 122.43,-48.8 122.43,-84.8"/>
<text text-anchor="middle" x="73" y="-62.6" font-family="Times,serif" font-size="14.00">SharedModule</text>
</g>
<!-- SharedModule&#45;&gt;TestControllerModule -->
<g id="edge6" class="edge">
<title>SharedModule&#45;&gt;TestControllerModule</title>
<path fill="none" stroke="black" d="M73,-85.08C73,-106.12 73,-137.8 73,-137.8 73,-137.8 360.05,-137.8 360.05,-137.8"/>
<polygon fill="black" stroke="black" points="360.05,-141.3 370.05,-137.8 360.05,-134.3 360.05,-141.3"/>
</g>
</g>
</svg>
