<?xml version="1.0" encoding="UTF-8" standalone="no"?>
<!DOCTYPE svg PUBLIC "-//W3C//DTD SVG 1.1//EN"
 "http://www.w3.org/Graphics/SVG/1.1/DTD/svg11.dtd">
<!-- Generated by graphviz version 3.0.0 (20220226.1711)
 -->
<!-- Title: dependencies Pages: 1 -->
<svg width="1951pt" height="247pt"
 viewBox="0.00 0.00 1951.00 246.80" xmlns="http://www.w3.org/2000/svg" xmlns:xlink="http://www.w3.org/1999/xlink">
<g id="graph0" class="graph" transform="scale(1 1) rotate(0) translate(4 242.8)">
<title>dependencies</title>
<polygon fill="white" stroke="transparent" points="-4,4 -4,-242.8 1947,-242.8 1947,4 -4,4"/>
<text text-anchor="middle" x="971.5" y="-8.2" font-family="sans-serif" font-size="14.00">dependencies</text>
<g id="clust1" class="cluster">
<title>cluster_WorkspaceModule</title>
<polygon fill="none" stroke="black" stroke-dasharray="1,5" points="8,-32.8 8,-230.8 1935,-230.8 1935,-32.8 8,-32.8"/>
</g>
<g id="clust13" class="cluster">
<title>cluster_WorkspaceModule_providers</title>
<polygon fill="none" stroke="black" points="1542,-40.8 1542,-92.8 1927,-92.8 1927,-40.8 1542,-40.8"/>
</g>
<g id="clust2" class="cluster">
<title>cluster_WorkspaceModule_declarations</title>
<polygon fill="none" stroke="black" points="324,-40.8 324,-92.8 1534,-92.8 1534,-40.8 324,-40.8"/>
</g>
<g id="clust11" class="cluster">
<title>cluster_WorkspaceModule_exports</title>
<polygon fill="none" stroke="black" points="807,-170.8 807,-222.8 971,-222.8 971,-170.8 807,-170.8"/>
</g>
<g id="clust10" class="cluster">
<title>cluster_WorkspaceModule_imports</title>
<polygon fill="none" stroke="black" points="16,-40.8 16,-92.8 316,-92.8 316,-40.8 16,-40.8"/>
</g>
<!-- FilesComponent -->
<g id="node1" class="node">
<title>FilesComponent</title>
<polygon fill="#ffffb3" stroke="black" points="1526.06,-84.8 1417.94,-84.8 1417.94,-48.8 1526.06,-48.8 1526.06,-84.8"/>
<text text-anchor="middle" x="1472" y="-62.6" font-family="Times,serif" font-size="14.00">FilesComponent</text>
</g>
<!-- WorkspaceModule -->
<g id="node8" class="node">
<title>WorkspaceModule</title>
<polygon fill="#8dd3c7" stroke="black" points="950.02,-149.8 947.02,-153.8 926.02,-153.8 923.02,-149.8 827.98,-149.8 827.98,-113.8 950.02,-113.8 950.02,-149.8"/>
<text text-anchor="middle" x="889" y="-127.6" font-family="Times,serif" font-size="14.00">WorkspaceModule</text>
</g>
<!-- FilesComponent&#45;&gt;WorkspaceModule -->
<g id="edge1" class="edge">
<title>FilesComponent&#45;&gt;WorkspaceModule</title>
<path fill="none" stroke="black" d="M1472,-84.91C1472,-104.14 1472,-131.8 1472,-131.8 1472,-131.8 960.29,-131.8 960.29,-131.8"/>
<polygon fill="black" stroke="black" points="960.29,-128.3 950.29,-131.8 960.29,-135.3 960.29,-128.3"/>
</g>
<!-- IqbFilesUploadComponent -->
<g id="node2" class="node">
<title>IqbFilesUploadComponent</title>
<polygon fill="#ffffb3" stroke="black" points="1400.44,-84.8 1231.56,-84.8 1231.56,-48.8 1400.44,-48.8 1400.44,-84.8"/>
<text text-anchor="middle" x="1316" y="-62.6" font-family="Times,serif" font-size="14.00">IqbFilesUploadComponent</text>
</g>
<!-- IqbFilesUploadComponent&#45;&gt;WorkspaceModule -->
<g id="edge2" class="edge">
<title>IqbFilesUploadComponent&#45;&gt;WorkspaceModule</title>
<path fill="none" stroke="black" d="M1316,-84.82C1316,-102.17 1316,-125.8 1316,-125.8 1316,-125.8 960.18,-125.8 960.18,-125.8"/>
<polygon fill="black" stroke="black" points="960.18,-122.3 950.18,-125.8 960.18,-129.3 960.18,-122.3"/>
</g>
<!-- IqbFilesUploadInputForDirective -->
<g id="node3" class="node">
<title>IqbFilesUploadInputForDirective</title>
<polygon fill="#ffffb3" stroke="black" points="1214.19,-84.8 1009.81,-84.8 1009.81,-48.8 1214.19,-48.8 1214.19,-84.8"/>
<text text-anchor="middle" x="1112" y="-62.6" font-family="Times,serif" font-size="14.00">IqbFilesUploadInputForDirective</text>
</g>
<!-- IqbFilesUploadInputForDirective&#45;&gt;WorkspaceModule -->
<g id="edge3" class="edge">
<title>IqbFilesUploadInputForDirective&#45;&gt;WorkspaceModule</title>
<path fill="none" stroke="black" d="M1112,-85.04C1112,-100.37 1112,-119.8 1112,-119.8 1112,-119.8 960.23,-119.8 960.23,-119.8"/>
<polygon fill="black" stroke="black" points="960.23,-116.3 950.23,-119.8 960.23,-123.3 960.23,-116.3"/>
</g>
<!-- IqbFilesUploadQueueComponent -->
<g id="node4" class="node">
<title>IqbFilesUploadQueueComponent</title>
<polygon fill="#ffffb3" stroke="black" points="991.47,-84.8 786.53,-84.8 786.53,-48.8 991.47,-48.8 991.47,-84.8"/>
<text text-anchor="middle" x="889" y="-62.6" font-family="Times,serif" font-size="14.00">IqbFilesUploadQueueComponent</text>
</g>
<!-- IqbFilesUploadQueueComponent&#45;&gt;WorkspaceModule -->
<g id="edge4" class="edge">
<title>IqbFilesUploadQueueComponent&#45;&gt;WorkspaceModule</title>
<path fill="none" stroke="black" d="M889,-84.91C889,-84.91 889,-103.79 889,-103.79"/>
<polygon fill="black" stroke="black" points="885.5,-103.79 889,-113.79 892.5,-103.79 885.5,-103.79"/>
</g>
<!-- ResultsComponent -->
<g id="node5" class="node">
<title>ResultsComponent</title>
<polygon fill="#ffffb3" stroke="black" points="768.06,-84.8 645.94,-84.8 645.94,-48.8 768.06,-48.8 768.06,-84.8"/>
<text text-anchor="middle" x="707" y="-62.6" font-family="Times,serif" font-size="14.00">ResultsComponent</text>
</g>
<!-- ResultsComponent&#45;&gt;WorkspaceModule -->
<g id="edge5" class="edge">
<title>ResultsComponent&#45;&gt;WorkspaceModule</title>
<path fill="none" stroke="black" d="M707,-85.04C707,-100.37 707,-119.8 707,-119.8 707,-119.8 817.89,-119.8 817.89,-119.8"/>
<polygon fill="black" stroke="black" points="817.89,-123.3 827.89,-119.8 817.89,-116.3 817.89,-123.3"/>
</g>
<!-- SyscheckComponent -->
<g id="node6" class="node">
<title>SyscheckComponent</title>
<polygon fill="#ffffb3" stroke="black" points="628.21,-84.8 493.79,-84.8 493.79,-48.8 628.21,-48.8 628.21,-84.8"/>
<text text-anchor="middle" x="561" y="-62.6" font-family="Times,serif" font-size="14.00">SyscheckComponent</text>
</g>
<!-- SyscheckComponent&#45;&gt;WorkspaceModule -->
<g id="edge6" class="edge">
<title>SyscheckComponent&#45;&gt;WorkspaceModule</title>
<path fill="none" stroke="black" d="M561,-84.82C561,-102.17 561,-125.8 561,-125.8 561,-125.8 817.69,-125.8 817.69,-125.8"/>
<polygon fill="black" stroke="black" points="817.69,-129.3 827.69,-125.8 817.69,-122.3 817.69,-129.3"/>
</g>
<!-- WorkspaceComponent -->
<g id="node7" class="node">
<title>WorkspaceComponent</title>
<polygon fill="#ffffb3" stroke="black" points="476.3,-84.8 331.7,-84.8 331.7,-48.8 476.3,-48.8 476.3,-84.8"/>
<text text-anchor="middle" x="404" y="-62.6" font-family="Times,serif" font-size="14.00">WorkspaceComponent</text>
</g>
<!-- WorkspaceComponent&#45;&gt;WorkspaceModule -->
<g id="edge7" class="edge">
<title>WorkspaceComponent&#45;&gt;WorkspaceModule</title>
<path fill="none" stroke="black" d="M404,-84.91C404,-104.14 404,-131.8 404,-131.8 404,-131.8 817.57,-131.8 817.57,-131.8"/>
<polygon fill="black" stroke="black" points="817.57,-135.3 827.57,-131.8 817.57,-128.3 817.57,-135.3"/>
</g>
<!-- WorkspaceComponent  -->
<g id="node11" class="node">
<title>WorkspaceComponent </title>
<polygon fill="#fb8072" stroke="black" points="962.8,-214.8 815.2,-214.8 815.2,-178.8 962.8,-178.8 962.8,-214.8"/>
<text text-anchor="middle" x="889" y="-192.6" font-family="Times,serif" font-size="14.00">WorkspaceComponent </text>
</g>
<!-- WorkspaceModule&#45;&gt;WorkspaceComponent  -->
<g id="edge10" class="edge">
<title>WorkspaceModule&#45;&gt;WorkspaceComponent </title>
<path fill="none" stroke="black" stroke-dasharray="5,2" d="M889,-149.91C889,-149.91 889,-168.79 889,-168.79"/>
<polygon fill="black" stroke="black" points="885.5,-168.79 889,-178.79 892.5,-168.79 885.5,-168.79"/>
</g>
<!-- SharedModule -->
<g id="node9" class="node">
<title>SharedModule</title>
<polygon fill="#8dd3c7" stroke="black" points="308.43,-84.8 305.43,-88.8 284.43,-88.8 281.43,-84.8 209.57,-84.8 209.57,-48.8 308.43,-48.8 308.43,-84.8"/>
<text text-anchor="middle" x="259" y="-62.6" font-family="Times,serif" font-size="14.00">SharedModule</text>
</g>
<!-- SharedModule&#45;&gt;WorkspaceModule -->
<g id="edge8" class="edge">
<title>SharedModule&#45;&gt;WorkspaceModule</title>
<path fill="none" stroke="black" d="M259,-85.08C259,-106.12 259,-137.8 259,-137.8 259,-137.8 817.73,-137.8 817.73,-137.8"/>
<polygon fill="black" stroke="black" points="817.73,-141.3 827.73,-137.8 817.73,-134.3 817.73,-141.3"/>
</g>
<!-- WorkspaceRoutingModule -->
<g id="node10" class="node">
<title>WorkspaceRoutingModule</title>
<polygon fill="#8dd3c7" stroke="black" points="191.64,-84.8 188.64,-88.8 167.64,-88.8 164.64,-84.8 24.36,-84.8 24.36,-48.8 191.64,-48.8 191.64,-84.8"/>
<text text-anchor="middle" x="108" y="-62.6" font-family="Times,serif" font-size="14.00">WorkspaceRoutingModule</text>
</g>
<!-- WorkspaceRoutingModule&#45;&gt;WorkspaceModule -->
<g id="edge9" class="edge">
<title>WorkspaceRoutingModule&#45;&gt;WorkspaceModule</title>
<path fill="none" stroke="black" d="M108,-85.05C108,-107.82 108,-143.8 108,-143.8 108,-143.8 817.72,-143.8 817.72,-143.8"/>
<polygon fill="black" stroke="black" points="817.72,-147.3 827.72,-143.8 817.72,-140.3 817.72,-147.3"/>
</g>
<!-- BackendService -->
<g id="node12" class="node">
<title>BackendService</title>
<ellipse fill="#fdb462" stroke="black" cx="1845" cy="-66.8" rx="73.56" ry="18"/>
<text text-anchor="middle" x="1845" y="-62.6" font-family="Times,serif" font-size="14.00">BackendService</text>
</g>
<!-- BackendService&#45;&gt;WorkspaceModule -->
<g id="edge11" class="edge">
<title>BackendService&#45;&gt;WorkspaceModule</title>
<path fill="none" stroke="black" d="M1845,-85.05C1845,-107.82 1845,-143.8 1845,-143.8 1845,-143.8 960.26,-143.8 960.26,-143.8"/>
<polygon fill="black" stroke="black" points="960.26,-140.3 950.26,-143.8 960.26,-147.3 960.26,-140.3"/>
</g>
<!-- WorkspaceDataService -->
<g id="node13" class="node">
<title>WorkspaceDataService</title>
<ellipse fill="#fdb462" stroke="black" cx="1652" cy="-66.8" rx="101.81" ry="18"/>
<text text-anchor="middle" x="1652" y="-62.6" font-family="Times,serif" font-size="14.00">WorkspaceDataService</text>
</g>
<!-- WorkspaceDataService&#45;&gt;WorkspaceModule -->
<g id="edge12" class="edge">
<title>WorkspaceDataService&#45;&gt;WorkspaceModule</title>
<path fill="none" stroke="black" d="M1652,-85.08C1652,-106.12 1652,-137.8 1652,-137.8 1652,-137.8 960.15,-137.8 960.15,-137.8"/>
<polygon fill="black" stroke="black" points="960.15,-134.3 950.15,-137.8 960.15,-141.3 960.15,-134.3"/>
</g>
</g>
</svg>
