<?xml version="1.0" encoding="UTF-8" standalone="no"?>
<!DOCTYPE svg PUBLIC "-//W3C//DTD SVG 1.1//EN"
 "http://www.w3.org/Graphics/SVG/1.1/DTD/svg11.dtd">
<!-- Generated by graphviz version 2.47.3 (20210619.1520)
 -->
<!-- Title: dependencies Pages: 1 -->
<svg width="2529pt" height="247pt"
 viewBox="0.00 0.00 2529.00 246.80" xmlns="http://www.w3.org/2000/svg" xmlns:xlink="http://www.w3.org/1999/xlink">
<g id="graph0" class="graph" transform="scale(1 1) rotate(0) translate(4 242.8)">
<title>dependencies</title>
<polygon fill="white" stroke="transparent" points="-4,4 -4,-242.8 2525,-242.8 2525,4 -4,4"/>
<text text-anchor="middle" x="1260.5" y="-8.2" font-family="sans-serif" font-size="14.00">dependencies</text>
<g id="clust1" class="cluster">
<title>cluster_SuperadminModule</title>
<polygon fill="none" stroke="black" stroke-dasharray="1,5" points="8,-32.8 8,-230.8 2513,-230.8 2513,-32.8 8,-32.8"/>
</g>
<g id="clust2" class="cluster">
<title>cluster_SuperadminModule_declarations</title>
<polygon fill="none" stroke="black" points="384,-40.8 384,-92.8 2505,-92.8 2505,-40.8 384,-40.8"/>
</g>
<g id="clust15" class="cluster">
<title>cluster_SuperadminModule_imports</title>
<polygon fill="none" stroke="black" points="188,-40.8 188,-92.8 376,-92.8 376,-40.8 188,-40.8"/>
</g>
<g id="clust18" class="cluster">
<title>cluster_SuperadminModule_providers</title>
<polygon fill="none" stroke="black" points="16,-40.8 16,-92.8 180,-92.8 180,-40.8 16,-40.8"/>
</g>
<g id="clust16" class="cluster">
<title>cluster_SuperadminModule_exports</title>
<polygon fill="none" stroke="black" points="1184,-170.8 1184,-222.8 1352,-222.8 1352,-170.8 1184,-170.8"/>
</g>
<!-- AppConfigComponent -->
<g id="node1" class="node">
<title>AppConfigComponent</title>
<polygon fill="#ffffb3" stroke="black" points="2497.33,-84.8 2352.67,-84.8 2352.67,-48.8 2497.33,-48.8 2497.33,-84.8"/>
<text text-anchor="middle" x="2425" y="-62.6" font-family="Times,serif" font-size="14.00">AppConfigComponent</text>
</g>
<!-- SuperadminModule -->
<g id="node13" class="node">
<title>SuperadminModule</title>
<polygon fill="#8dd3c7" stroke="black" points="1331.7,-149.8 1328.7,-153.8 1307.7,-153.8 1304.7,-149.8 1204.3,-149.8 1204.3,-113.8 1331.7,-113.8 1331.7,-149.8"/>
<text text-anchor="middle" x="1268" y="-127.6" font-family="Times,serif" font-size="14.00">SuperadminModule</text>
</g>
<!-- AppConfigComponent&#45;&gt;SuperadminModule -->
<g id="edge1" class="edge">
<title>AppConfigComponent&#45;&gt;SuperadminModule</title>
<path fill="none" stroke="black" d="M2425,-84.89C2425,-107.93 2425,-144.8 2425,-144.8 2425,-144.8 1341.85,-144.8 1341.85,-144.8"/>
<polygon fill="black" stroke="black" points="1341.85,-141.3 1331.85,-144.8 1341.85,-148.3 1341.85,-141.3"/>
</g>
<!-- EditCustomTextComponent -->
<g id="node2" class="node">
<title>EditCustomTextComponent</title>
<polygon fill="#ffffb3" stroke="black" points="2334.89,-84.8 2161.11,-84.8 2161.11,-48.8 2334.89,-48.8 2334.89,-84.8"/>
<text text-anchor="middle" x="2248" y="-62.6" font-family="Times,serif" font-size="14.00">EditCustomTextComponent</text>
</g>
<!-- EditCustomTextComponent&#45;&gt;SuperadminModule -->
<g id="edge2" class="edge">
<title>EditCustomTextComponent&#45;&gt;SuperadminModule</title>
<path fill="none" stroke="black" d="M2248,-84.84C2248,-106.46 2248,-139.8 2248,-139.8 2248,-139.8 1341.92,-139.8 1341.92,-139.8"/>
<polygon fill="black" stroke="black" points="1341.92,-136.3 1331.92,-139.8 1341.92,-143.3 1341.92,-136.3"/>
</g>
<!-- EditCustomTextsComponent -->
<g id="node3" class="node">
<title>EditCustomTextsComponent</title>
<polygon fill="#ffffb3" stroke="black" points="2142.83,-84.8 1963.17,-84.8 1963.17,-48.8 2142.83,-48.8 2142.83,-84.8"/>
<text text-anchor="middle" x="2053" y="-62.6" font-family="Times,serif" font-size="14.00">EditCustomTextsComponent</text>
</g>
<!-- EditCustomTextsComponent&#45;&gt;SuperadminModule -->
<g id="edge3" class="edge">
<title>EditCustomTextsComponent&#45;&gt;SuperadminModule</title>
<path fill="none" stroke="black" d="M2053,-85.02C2053,-105.17 2053,-134.8 2053,-134.8 2053,-134.8 1341.91,-134.8 1341.91,-134.8"/>
<polygon fill="black" stroke="black" points="1341.91,-131.3 1331.91,-134.8 1341.91,-138.3 1341.91,-131.3"/>
</g>
<!-- EditworkspaceComponent -->
<g id="node4" class="node">
<title>EditworkspaceComponent</title>
<polygon fill="#ffffb3" stroke="black" points="1945.02,-84.8 1780.98,-84.8 1780.98,-48.8 1945.02,-48.8 1945.02,-84.8"/>
<text text-anchor="middle" x="1863" y="-62.6" font-family="Times,serif" font-size="14.00">EditworkspaceComponent</text>
</g>
<!-- EditworkspaceComponent&#45;&gt;SuperadminModule -->
<g id="edge4" class="edge">
<title>EditworkspaceComponent&#45;&gt;SuperadminModule</title>
<path fill="none" stroke="black" d="M1863,-85.02C1863,-103.63 1863,-129.8 1863,-129.8 1863,-129.8 1341.68,-129.8 1341.68,-129.8"/>
<polygon fill="black" stroke="black" points="1341.68,-126.3 1331.68,-129.8 1341.68,-133.3 1341.68,-126.3"/>
</g>
<!-- NewpasswordComponent -->
<g id="node5" class="node">
<title>NewpasswordComponent</title>
<polygon fill="#ffffb3" stroke="black" points="1762.13,-84.8 1601.87,-84.8 1601.87,-48.8 1762.13,-48.8 1762.13,-84.8"/>
<text text-anchor="middle" x="1682" y="-62.6" font-family="Times,serif" font-size="14.00">NewpasswordComponent</text>
</g>
<!-- NewpasswordComponent&#45;&gt;SuperadminModule -->
<g id="edge5" class="edge">
<title>NewpasswordComponent&#45;&gt;SuperadminModule</title>
<path fill="none" stroke="black" d="M1682,-84.83C1682,-101.86 1682,-124.8 1682,-124.8 1682,-124.8 1341.78,-124.8 1341.78,-124.8"/>
<polygon fill="black" stroke="black" points="1341.78,-121.3 1331.78,-124.8 1341.78,-128.3 1341.78,-121.3"/>
</g>
<!-- NewuserComponent -->
<g id="node6" class="node">
<title>NewuserComponent</title>
<polygon fill="#ffffb3" stroke="black" points="1583.58,-84.8 1452.42,-84.8 1452.42,-48.8 1583.58,-48.8 1583.58,-84.8"/>
<text text-anchor="middle" x="1518" y="-62.6" font-family="Times,serif" font-size="14.00">NewuserComponent</text>
</g>
<!-- NewuserComponent&#45;&gt;SuperadminModule -->
<g id="edge6" class="edge">
<title>NewuserComponent&#45;&gt;SuperadminModule</title>
<path fill="none" stroke="black" d="M1518,-85.04C1518,-100.37 1518,-119.8 1518,-119.8 1518,-119.8 1341.73,-119.8 1341.73,-119.8"/>
<polygon fill="black" stroke="black" points="1341.73,-116.3 1331.73,-119.8 1341.73,-123.3 1341.73,-116.3"/>
</g>
<!-- NewworkspaceComponent -->
<g id="node7" class="node">
<title>NewworkspaceComponent</title>
<polygon fill="#ffffb3" stroke="black" points="1434.62,-84.8 1267.38,-84.8 1267.38,-48.8 1434.62,-48.8 1434.62,-84.8"/>
<text text-anchor="middle" x="1351" y="-62.6" font-family="Times,serif" font-size="14.00">NewworkspaceComponent</text>
</g>
<!-- NewworkspaceComponent&#45;&gt;SuperadminModule -->
<g id="edge7" class="edge">
<title>NewworkspaceComponent&#45;&gt;SuperadminModule</title>
<path fill="none" stroke="black" d="M1299.4,-84.91C1299.4,-84.91 1299.4,-103.79 1299.4,-103.79"/>
<polygon fill="black" stroke="black" points="1295.9,-103.79 1299.4,-113.79 1302.9,-103.79 1295.9,-103.79"/>
</g>
<!-- SettingsComponent -->
<g id="node8" class="node">
<title>SettingsComponent</title>
<polygon fill="#ffffb3" stroke="black" points="1249.45,-84.8 1122.55,-84.8 1122.55,-48.8 1249.45,-48.8 1249.45,-84.8"/>
<text text-anchor="middle" x="1186" y="-62.6" font-family="Times,serif" font-size="14.00">SettingsComponent</text>
</g>
<!-- SettingsComponent&#45;&gt;SuperadminModule -->
<g id="edge8" class="edge">
<title>SettingsComponent&#45;&gt;SuperadminModule</title>
<path fill="none" stroke="black" d="M1226.81,-84.91C1226.81,-84.91 1226.81,-103.79 1226.81,-103.79"/>
<polygon fill="black" stroke="black" points="1223.31,-103.79 1226.81,-113.79 1230.31,-103.79 1223.31,-103.79"/>
</g>
<!-- SuperadminComponent -->
<g id="node9" class="node">
<title>SuperadminComponent</title>
<polygon fill="#ffffb3" stroke="black" points="1104.49,-84.8 955.51,-84.8 955.51,-48.8 1104.49,-48.8 1104.49,-84.8"/>
<text text-anchor="middle" x="1030" y="-62.6" font-family="Times,serif" font-size="14.00">SuperadminComponent</text>
</g>
<!-- SuperadminComponent&#45;&gt;SuperadminModule -->
<g id="edge9" class="edge">
<title>SuperadminComponent&#45;&gt;SuperadminModule</title>
<path fill="none" stroke="black" d="M1030,-85.04C1030,-100.37 1030,-119.8 1030,-119.8 1030,-119.8 1194.22,-119.8 1194.22,-119.8"/>
<polygon fill="black" stroke="black" points="1194.22,-123.3 1204.22,-119.8 1194.22,-116.3 1194.22,-123.3"/>
</g>
<!-- SuperadminPasswordRequestComponent -->
<g id="node10" class="node">
<title>SuperadminPasswordRequestComponent</title>
<polygon fill="#ffffb3" stroke="black" points="937.74,-84.8 690.26,-84.8 690.26,-48.8 937.74,-48.8 937.74,-84.8"/>
<text text-anchor="middle" x="814" y="-62.6" font-family="Times,serif" font-size="14.00">SuperadminPasswordRequestComponent</text>
</g>
<!-- SuperadminPasswordRequestComponent&#45;&gt;SuperadminModule -->
<g id="edge10" class="edge">
<title>SuperadminPasswordRequestComponent&#45;&gt;SuperadminModule</title>
<path fill="none" stroke="black" d="M814,-84.83C814,-101.86 814,-124.8 814,-124.8 814,-124.8 1194.4,-124.8 1194.4,-124.8"/>
<polygon fill="black" stroke="black" points="1194.4,-128.3 1204.4,-124.8 1194.4,-121.3 1194.4,-128.3"/>
</g>
<!-- UsersComponent -->
<g id="node11" class="node">
<title>UsersComponent</title>
<polygon fill="#ffffb3" stroke="black" points="672.7,-84.8 559.3,-84.8 559.3,-48.8 672.7,-48.8 672.7,-84.8"/>
<text text-anchor="middle" x="616" y="-62.6" font-family="Times,serif" font-size="14.00">UsersComponent</text>
</g>
<!-- UsersComponent&#45;&gt;SuperadminModule -->
<g id="edge11" class="edge">
<title>UsersComponent&#45;&gt;SuperadminModule</title>
<path fill="none" stroke="black" d="M616,-85.02C616,-103.63 616,-129.8 616,-129.8 616,-129.8 1194.3,-129.8 1194.3,-129.8"/>
<polygon fill="black" stroke="black" points="1194.3,-133.3 1204.3,-129.8 1194.3,-126.3 1194.3,-133.3"/>
</g>
<!-- WorkspacesComponent -->
<g id="node12" class="node">
<title>WorkspacesComponent</title>
<polygon fill="#ffffb3" stroke="black" points="541.74,-84.8 392.26,-84.8 392.26,-48.8 541.74,-48.8 541.74,-84.8"/>
<text text-anchor="middle" x="467" y="-62.6" font-family="Times,serif" font-size="14.00">WorkspacesComponent</text>
</g>
<!-- WorkspacesComponent&#45;&gt;SuperadminModule -->
<g id="edge12" class="edge">
<title>WorkspacesComponent&#45;&gt;SuperadminModule</title>
<path fill="none" stroke="black" d="M467,-85.02C467,-105.17 467,-134.8 467,-134.8 467,-134.8 1194.14,-134.8 1194.14,-134.8"/>
<polygon fill="black" stroke="black" points="1194.14,-138.3 1204.14,-134.8 1194.14,-131.3 1194.14,-138.3"/>
</g>
<!-- SuperadminComponent  -->
<g id="node15" class="node">
<title>SuperadminComponent </title>
<polygon fill="#fb8072" stroke="black" points="1344.49,-214.8 1191.51,-214.8 1191.51,-178.8 1344.49,-178.8 1344.49,-214.8"/>
<text text-anchor="middle" x="1268" y="-192.6" font-family="Times,serif" font-size="14.00">SuperadminComponent </text>
</g>
<!-- SuperadminModule&#45;&gt;SuperadminComponent  -->
<g id="edge14" class="edge">
<title>SuperadminModule&#45;&gt;SuperadminComponent </title>
<path fill="none" stroke="black" stroke-dasharray="5,2" d="M1268,-149.91C1268,-149.91 1268,-168.79 1268,-168.79"/>
<polygon fill="black" stroke="black" points="1264.5,-168.79 1268,-178.79 1271.5,-168.79 1264.5,-168.79"/>
</g>
<!-- SuperadminRoutingModule -->
<g id="node14" class="node">
<title>SuperadminRoutingModule</title>
<polygon fill="#8dd3c7" stroke="black" points="368.32,-84.8 365.32,-88.8 344.32,-88.8 341.32,-84.8 195.68,-84.8 195.68,-48.8 368.32,-48.8 368.32,-84.8"/>
<text text-anchor="middle" x="282" y="-62.6" font-family="Times,serif" font-size="14.00">SuperadminRoutingModule</text>
</g>
<!-- SuperadminRoutingModule&#45;&gt;SuperadminModule -->
<g id="edge13" class="edge">
<title>SuperadminRoutingModule&#45;&gt;SuperadminModule</title>
<path fill="none" stroke="black" d="M282,-84.84C282,-106.46 282,-139.8 282,-139.8 282,-139.8 1194.07,-139.8 1194.07,-139.8"/>
<polygon fill="black" stroke="black" points="1194.07,-143.3 1204.07,-139.8 1194.07,-136.3 1194.07,-143.3"/>
</g>
<!-- BackendService -->
<g id="node16" class="node">
<title>BackendService</title>
<ellipse fill="#fdb462" stroke="black" cx="98" cy="-66.8" rx="73.56" ry="18"/>
<text text-anchor="middle" x="98" y="-62.6" font-family="Times,serif" font-size="14.00">BackendService</text>
</g>
<!-- BackendService&#45;&gt;SuperadminModule -->
<g id="edge15" class="edge">
<title>BackendService&#45;&gt;SuperadminModule</title>
<path fill="none" stroke="black" d="M98,-84.89C98,-107.93 98,-144.8 98,-144.8 98,-144.8 1194.26,-144.8 1194.26,-144.8"/>
<polygon fill="black" stroke="black" points="1194.26,-148.3 1204.26,-144.8 1194.26,-141.3 1194.26,-148.3"/>
</g>
</g>
</svg>
