<?xml version="1.0" encoding="UTF-8" standalone="no"?>
<!DOCTYPE svg PUBLIC "-//W3C//DTD SVG 1.1//EN"
 "http://www.w3.org/Graphics/SVG/1.1/DTD/svg11.dtd">
<!-- Generated by graphviz version 3.0.0 (20220226.1711)
 -->
<!-- Title: dependencies Pages: 1 -->
<svg width="2529pt" height="247pt"
 viewBox="0.00 0.00 2529.00 246.80" xmlns="http://www.w3.org/2000/svg" xmlns:xlink="http://www.w3.org/1999/xlink">
<g id="graph0" class="graph" transform="scale(1 1) rotate(0) translate(4 242.8)">
<title>dependencies</title>
<polygon fill="white" stroke="transparent" points="-4,4 -4,-242.8 2525,-242.8 2525,4 -4,4"/>
<text text-anchor="middle" x="1260.5" y="-8.2" font-family="sans-serif" font-size="14.00">dependencies</text>
<g id="clust1" class="cluster">
<title>cluster_SuperadminModule</title>
<polygon fill="none" stroke="black" stroke-dasharray="1,5" points="8,-32.8 8,-230.8 2513,-230.8 2513,-32.8 8,-32.8"/>
</g>
<g id="clust15" class="cluster">
<title>cluster_SuperadminModule_imports</title>
<polygon fill="none" stroke="black" points="2317,-40.8 2317,-92.8 2505,-92.8 2505,-40.8 2317,-40.8"/>
</g>
<g id="clust2" class="cluster">
<title>cluster_SuperadminModule_declarations</title>
<polygon fill="none" stroke="black" points="188,-40.8 188,-92.8 2309,-92.8 2309,-40.8 188,-40.8"/>
</g>
<g id="clust18" class="cluster">
<title>cluster_SuperadminModule_providers</title>
<polygon fill="none" stroke="black" points="16,-40.8 16,-92.8 180,-92.8 180,-40.8 16,-40.8"/>
</g>
<g id="clust16" class="cluster">
<title>cluster_SuperadminModule_exports</title>
<polygon fill="none" stroke="black" points="1154,-170.8 1154,-222.8 1322,-222.8 1322,-170.8 1154,-170.8"/>
</g>
<!-- AppConfigComponent -->
<g id="node1" class="node">
<title>AppConfigComponent</title>
<polygon fill="#ffffb3" stroke="black" points="2301.33,-84.8 2156.67,-84.8 2156.67,-48.8 2301.33,-48.8 2301.33,-84.8"/>
<text text-anchor="middle" x="2229" y="-62.6" font-family="Times,serif" font-size="14.00">AppConfigComponent</text>
</g>
<!-- SuperadminModule -->
<g id="node13" class="node">
<title>SuperadminModule</title>
<polygon fill="#8dd3c7" stroke="black" points="1301.71,-149.8 1298.71,-153.8 1277.71,-153.8 1274.71,-149.8 1174.29,-149.8 1174.29,-113.8 1301.71,-113.8 1301.71,-149.8"/>
<text text-anchor="middle" x="1238" y="-127.6" font-family="Times,serif" font-size="14.00">SuperadminModule</text>
</g>
<!-- AppConfigComponent&#45;&gt;SuperadminModule -->
<g id="edge1" class="edge">
<title>AppConfigComponent&#45;&gt;SuperadminModule</title>
<path fill="none" stroke="black" d="M2229,-84.84C2229,-106.46 2229,-139.8 2229,-139.8 2229,-139.8 1311.88,-139.8 1311.88,-139.8"/>
<polygon fill="black" stroke="black" points="1311.88,-136.3 1301.88,-139.8 1311.88,-143.3 1311.88,-136.3"/>
</g>
<!-- EditCustomTextComponent -->
<g id="node2" class="node">
<title>EditCustomTextComponent</title>
<polygon fill="#ffffb3" stroke="black" points="2138.88,-84.8 1965.12,-84.8 1965.12,-48.8 2138.88,-48.8 2138.88,-84.8"/>
<text text-anchor="middle" x="2052" y="-62.6" font-family="Times,serif" font-size="14.00">EditCustomTextComponent</text>
</g>
<!-- EditCustomTextComponent&#45;&gt;SuperadminModule -->
<g id="edge2" class="edge">
<title>EditCustomTextComponent&#45;&gt;SuperadminModule</title>
<path fill="none" stroke="black" d="M2052,-85.02C2052,-105.17 2052,-134.8 2052,-134.8 2052,-134.8 1311.87,-134.8 1311.87,-134.8"/>
<polygon fill="black" stroke="black" points="1311.87,-131.3 1301.87,-134.8 1311.87,-138.3 1311.87,-131.3"/>
</g>
<!-- EditCustomTextsComponent -->
<g id="node3" class="node">
<title>EditCustomTextsComponent</title>
<polygon fill="#ffffb3" stroke="black" points="1946.83,-84.8 1767.17,-84.8 1767.17,-48.8 1946.83,-48.8 1946.83,-84.8"/>
<text text-anchor="middle" x="1857" y="-62.6" font-family="Times,serif" font-size="14.00">EditCustomTextsComponent</text>
</g>
<!-- EditCustomTextsComponent&#45;&gt;SuperadminModule -->
<g id="edge3" class="edge">
<title>EditCustomTextsComponent&#45;&gt;SuperadminModule</title>
<path fill="none" stroke="black" d="M1857,-85.02C1857,-103.63 1857,-129.8 1857,-129.8 1857,-129.8 1311.62,-129.8 1311.62,-129.8"/>
<polygon fill="black" stroke="black" points="1311.62,-126.3 1301.62,-129.8 1311.62,-133.3 1311.62,-126.3"/>
</g>
<!-- EditworkspaceComponent -->
<g id="node4" class="node">
<title>EditworkspaceComponent</title>
<polygon fill="#ffffb3" stroke="black" points="1749.03,-84.8 1584.97,-84.8 1584.97,-48.8 1749.03,-48.8 1749.03,-84.8"/>
<text text-anchor="middle" x="1667" y="-62.6" font-family="Times,serif" font-size="14.00">EditworkspaceComponent</text>
</g>
<!-- EditworkspaceComponent&#45;&gt;SuperadminModule -->
<g id="edge4" class="edge">
<title>EditworkspaceComponent&#45;&gt;SuperadminModule</title>
<path fill="none" stroke="black" d="M1667,-84.83C1667,-101.86 1667,-124.8 1667,-124.8 1667,-124.8 1311.76,-124.8 1311.76,-124.8"/>
<polygon fill="black" stroke="black" points="1311.76,-121.3 1301.76,-124.8 1311.76,-128.3 1311.76,-121.3"/>
</g>
<!-- NewpasswordComponent -->
<g id="node5" class="node">
<title>NewpasswordComponent</title>
<polygon fill="#ffffb3" stroke="black" points="1566.15,-84.8 1405.85,-84.8 1405.85,-48.8 1566.15,-48.8 1566.15,-84.8"/>
<text text-anchor="middle" x="1486" y="-62.6" font-family="Times,serif" font-size="14.00">NewpasswordComponent</text>
</g>
<!-- NewpasswordComponent&#45;&gt;SuperadminModule -->
<g id="edge5" class="edge">
<title>NewpasswordComponent&#45;&gt;SuperadminModule</title>
<path fill="none" stroke="black" d="M1486,-85.04C1486,-100.37 1486,-119.8 1486,-119.8 1486,-119.8 1311.87,-119.8 1311.87,-119.8"/>
<polygon fill="black" stroke="black" points="1311.87,-116.3 1301.87,-119.8 1311.87,-123.3 1311.87,-116.3"/>
</g>
<!-- NewuserComponent -->
<g id="node6" class="node">
<title>NewuserComponent</title>
<polygon fill="#ffffb3" stroke="black" points="1387.59,-84.8 1256.41,-84.8 1256.41,-48.8 1387.59,-48.8 1387.59,-84.8"/>
<text text-anchor="middle" x="1322" y="-62.6" font-family="Times,serif" font-size="14.00">NewuserComponent</text>
</g>
<!-- NewuserComponent&#45;&gt;SuperadminModule -->
<g id="edge6" class="edge">
<title>NewuserComponent&#45;&gt;SuperadminModule</title>
<path fill="none" stroke="black" d="M1279.03,-84.91C1279.03,-84.91 1279.03,-103.79 1279.03,-103.79"/>
<polygon fill="black" stroke="black" points="1275.53,-103.79 1279.03,-113.79 1282.53,-103.79 1275.53,-103.79"/>
</g>
<!-- NewworkspaceComponent -->
<g id="node7" class="node">
<title>NewworkspaceComponent</title>
<polygon fill="#ffffb3" stroke="black" points="1238.63,-84.8 1071.37,-84.8 1071.37,-48.8 1238.63,-48.8 1238.63,-84.8"/>
<text text-anchor="middle" x="1155" y="-62.6" font-family="Times,serif" font-size="14.00">NewworkspaceComponent</text>
</g>
<!-- NewworkspaceComponent&#45;&gt;SuperadminModule -->
<g id="edge7" class="edge">
<title>NewworkspaceComponent&#45;&gt;SuperadminModule</title>
<path fill="none" stroke="black" d="M1206.61,-84.91C1206.61,-84.91 1206.61,-103.79 1206.61,-103.79"/>
<polygon fill="black" stroke="black" points="1203.11,-103.79 1206.61,-113.79 1210.11,-103.79 1203.11,-103.79"/>
</g>
<!-- SettingsComponent -->
<g id="node8" class="node">
<title>SettingsComponent</title>
<polygon fill="#ffffb3" stroke="black" points="1053.45,-84.8 926.55,-84.8 926.55,-48.8 1053.45,-48.8 1053.45,-84.8"/>
<text text-anchor="middle" x="990" y="-62.6" font-family="Times,serif" font-size="14.00">SettingsComponent</text>
</g>
<!-- SettingsComponent&#45;&gt;SuperadminModule -->
<g id="edge8" class="edge">
<title>SettingsComponent&#45;&gt;SuperadminModule</title>
<path fill="none" stroke="black" d="M990,-85.04C990,-100.37 990,-119.8 990,-119.8 990,-119.8 1164.13,-119.8 1164.13,-119.8"/>
<polygon fill="black" stroke="black" points="1164.13,-123.3 1174.13,-119.8 1164.13,-116.3 1164.13,-123.3"/>
</g>
<!-- SuperadminComponent -->
<g id="node9" class="node">
<title>SuperadminComponent</title>
<polygon fill="#ffffb3" stroke="black" points="908.49,-84.8 759.51,-84.8 759.51,-48.8 908.49,-48.8 908.49,-84.8"/>
<text text-anchor="middle" x="834" y="-62.6" font-family="Times,serif" font-size="14.00">SuperadminComponent</text>
</g>
<!-- SuperadminComponent&#45;&gt;SuperadminModule -->
<g id="edge9" class="edge">
<title>SuperadminComponent&#45;&gt;SuperadminModule</title>
<path fill="none" stroke="black" d="M834,-84.83C834,-101.86 834,-124.8 834,-124.8 834,-124.8 1163.98,-124.8 1163.98,-124.8"/>
<polygon fill="black" stroke="black" points="1163.99,-128.3 1173.98,-124.8 1163.98,-121.3 1163.99,-128.3"/>
</g>
<!-- SuperadminPasswordRequestComponent -->
<g id="node10" class="node">
<title>SuperadminPasswordRequestComponent</title>
<polygon fill="#ffffb3" stroke="black" points="741.76,-84.8 494.24,-84.8 494.24,-48.8 741.76,-48.8 741.76,-84.8"/>
<text text-anchor="middle" x="618" y="-62.6" font-family="Times,serif" font-size="14.00">SuperadminPasswordRequestComponent</text>
</g>
<!-- SuperadminPasswordRequestComponent&#45;&gt;SuperadminModule -->
<g id="edge10" class="edge">
<title>SuperadminPasswordRequestComponent&#45;&gt;SuperadminModule</title>
<path fill="none" stroke="black" d="M618,-85.02C618,-103.63 618,-129.8 618,-129.8 618,-129.8 1164.27,-129.8 1164.27,-129.8"/>
<polygon fill="black" stroke="black" points="1164.27,-133.3 1174.27,-129.8 1164.27,-126.3 1164.27,-133.3"/>
</g>
<!-- UsersComponent -->
<g id="node11" class="node">
<title>UsersComponent</title>
<polygon fill="#ffffb3" stroke="black" points="476.71,-84.8 363.29,-84.8 363.29,-48.8 476.71,-48.8 476.71,-84.8"/>
<text text-anchor="middle" x="420" y="-62.6" font-family="Times,serif" font-size="14.00">UsersComponent</text>
</g>
<!-- UsersComponent&#45;&gt;SuperadminModule -->
<g id="edge11" class="edge">
<title>UsersComponent&#45;&gt;SuperadminModule</title>
<path fill="none" stroke="black" d="M420,-85.02C420,-105.17 420,-134.8 420,-134.8 420,-134.8 1164.15,-134.8 1164.15,-134.8"/>
<polygon fill="black" stroke="black" points="1164.15,-138.3 1174.15,-134.8 1164.15,-131.3 1164.15,-138.3"/>
</g>
<!-- WorkspacesComponent -->
<g id="node12" class="node">
<title>WorkspacesComponent</title>
<polygon fill="#ffffb3" stroke="black" points="345.75,-84.8 196.25,-84.8 196.25,-48.8 345.75,-48.8 345.75,-84.8"/>
<text text-anchor="middle" x="271" y="-62.6" font-family="Times,serif" font-size="14.00">WorkspacesComponent</text>
</g>
<!-- WorkspacesComponent&#45;&gt;SuperadminModule -->
<g id="edge12" class="edge">
<title>WorkspacesComponent&#45;&gt;SuperadminModule</title>
<path fill="none" stroke="black" d="M271,-84.84C271,-106.46 271,-139.8 271,-139.8 271,-139.8 1164.18,-139.8 1164.18,-139.8"/>
<polygon fill="black" stroke="black" points="1164.18,-143.3 1174.18,-139.8 1164.18,-136.3 1164.18,-143.3"/>
</g>
<!-- SuperadminComponent  -->
<g id="node15" class="node">
<title>SuperadminComponent </title>
<polygon fill="#fb8072" stroke="black" points="1314.49,-214.8 1161.51,-214.8 1161.51,-178.8 1314.49,-178.8 1314.49,-214.8"/>
<text text-anchor="middle" x="1238" y="-192.6" font-family="Times,serif" font-size="14.00">SuperadminComponent </text>
</g>
<!-- SuperadminModule&#45;&gt;SuperadminComponent  -->
<g id="edge14" class="edge">
<title>SuperadminModule&#45;&gt;SuperadminComponent </title>
<path fill="none" stroke="black" stroke-dasharray="5,2" d="M1238,-149.91C1238,-149.91 1238,-168.79 1238,-168.79"/>
<polygon fill="black" stroke="black" points="1234.5,-168.79 1238,-178.79 1241.5,-168.79 1234.5,-168.79"/>
</g>
<!-- SuperadminRoutingModule -->
<g id="node14" class="node">
<title>SuperadminRoutingModule</title>
<polygon fill="#8dd3c7" stroke="black" points="2497.32,-84.8 2494.32,-88.8 2473.32,-88.8 2470.32,-84.8 2324.68,-84.8 2324.68,-48.8 2497.32,-48.8 2497.32,-84.8"/>
<text text-anchor="middle" x="2411" y="-62.6" font-family="Times,serif" font-size="14.00">SuperadminRoutingModule</text>
</g>
<!-- SuperadminRoutingModule&#45;&gt;SuperadminModule -->
<g id="edge13" class="edge">
<title>SuperadminRoutingModule&#45;&gt;SuperadminModule</title>
<path fill="none" stroke="black" d="M2411,-84.89C2411,-107.93 2411,-144.8 2411,-144.8 2411,-144.8 1311.9,-144.8 1311.9,-144.8"/>
<polygon fill="black" stroke="black" points="1311.9,-141.3 1301.9,-144.8 1311.9,-148.3 1311.9,-141.3"/>
</g>
<!-- BackendService -->
<g id="node16" class="node">
<title>BackendService</title>
<ellipse fill="#fdb462" stroke="black" cx="98" cy="-66.8" rx="73.56" ry="18"/>
<text text-anchor="middle" x="98" y="-62.6" font-family="Times,serif" font-size="14.00">BackendService</text>
</g>
<!-- BackendService&#45;&gt;SuperadminModule -->
<g id="edge15" class="edge">
<title>BackendService&#45;&gt;SuperadminModule</title>
<path fill="none" stroke="black" d="M98,-84.89C98,-107.93 98,-144.8 98,-144.8 98,-144.8 1164.27,-144.8 1164.27,-144.8"/>
<polygon fill="black" stroke="black" points="1164.27,-148.3 1174.27,-144.8 1164.27,-141.3 1164.27,-148.3"/>
</g>
</g>
</svg>
