<?xml version="1.0" encoding="UTF-8" standalone="no"?>
<!DOCTYPE svg PUBLIC "-//W3C//DTD SVG 1.1//EN"
 "http://www.w3.org/Graphics/SVG/1.1/DTD/svg11.dtd">
<!-- Generated by graphviz version 3.0.0 (20220226.1711)
 -->
<!-- Title: dependencies Pages: 1 -->
<svg width="376pt" height="174pt"
 viewBox="0.00 0.00 376.00 173.80" xmlns="http://www.w3.org/2000/svg" xmlns:xlink="http://www.w3.org/1999/xlink">
<g id="graph0" class="graph" transform="scale(1 1) rotate(0) translate(4 169.8)">
<title>dependencies</title>
<polygon fill="white" stroke="transparent" points="-4,4 -4,-169.8 372,-169.8 372,4 -4,4"/>
<text text-anchor="middle" x="184" y="-8.2" font-family="sans-serif" font-size="14.00">dependencies</text>
<g id="clust1" class="cluster">
<title>cluster_AppModule</title>
<polygon fill="none" stroke="black" stroke-dasharray="1,5" points="8,-32.8 8,-157.8 360,-157.8 360,-32.8 8,-32.8"/>
</g>
<g id="clust6" class="cluster">
<title>cluster_AppModule_providers</title>
<polygon fill="none" stroke="black" points="16,-40.8 16,-92.8 352,-92.8 352,-40.8 16,-40.8"/>
</g>
<!-- TestSessionService -->
<g id="node1" class="node">
<title>TestSessionService</title>
<ellipse fill="#fdb462" stroke="black" cx="258" cy="-66.8" rx="86.27" ry="18"/>
<text text-anchor="middle" x="258" y="-62.6" font-family="Times,serif" font-size="14.00">TestSessionService</text>
</g>
<!-- AppModule -->
<g id="node3" class="node">
<title>AppModule</title>
<polygon fill="#8dd3c7" stroke="black" points="214.66,-149.8 211.66,-153.8 190.66,-153.8 187.66,-149.8 131.34,-149.8 131.34,-113.8 214.66,-113.8 214.66,-149.8"/>
<text text-anchor="middle" x="173" y="-127.6" font-family="Times,serif" font-size="14.00">AppModule</text>
</g>
<!-- TestSessionService&#45;&gt;AppModule -->
<g id="edge1" class="edge">
<title>TestSessionService&#45;&gt;AppModule</title>
<path fill="none" stroke="black" d="M193.35,-78.72C193.35,-78.72 193.35,-103.57 193.35,-103.57"/>
<polygon fill="black" stroke="black" points="189.85,-103.57 193.35,-113.57 196.85,-103.57 189.85,-103.57"/>
</g>
<!-- TesteeService -->
<g id="node2" class="node">
<title>TesteeService</title>
<ellipse fill="#fdb462" stroke="black" cx="89" cy="-66.8" rx="65.38" ry="18"/>
<text text-anchor="middle" x="89" y="-62.6" font-family="Times,serif" font-size="14.00">TesteeService</text>
</g>
<!-- TesteeService&#45;&gt;AppModule -->
<g id="edge2" class="edge">
<title>TesteeService&#45;&gt;AppModule</title>
<path fill="none" stroke="black" d="M142.68,-77.24C142.68,-77.24 142.68,-103.77 142.68,-103.77"/>
<polygon fill="black" stroke="black" points="139.18,-103.77 142.68,-113.77 146.18,-103.77 139.18,-103.77"/>
</g>
</g>
</svg>
