<?xml version="1.0" encoding="UTF-8" standalone="no"?>
<!DOCTYPE svg PUBLIC "-//W3C//DTD SVG 1.1//EN"
 "http://www.w3.org/Graphics/SVG/1.1/DTD/svg11.dtd">
<!-- Generated by graphviz version 3.0.0 (20220226.1711)
 -->
<!-- Title: dependencies Pages: 1 -->
<svg width="1242pt" height="174pt"
 viewBox="0.00 0.00 1242.00 173.80" xmlns="http://www.w3.org/2000/svg" xmlns:xlink="http://www.w3.org/1999/xlink">
<g id="graph0" class="graph" transform="scale(1 1) rotate(0) translate(4 169.8)">
<title>dependencies</title>
<polygon fill="white" stroke="transparent" points="-4,4 -4,-169.8 1238,-169.8 1238,4 -4,4"/>
<text text-anchor="middle" x="617" y="-8.2" font-family="sans-serif" font-size="14.00">dependencies</text>
<g id="clust1" class="cluster">
<title>cluster_GroupMonitorModule</title>
<polygon fill="none" stroke="black" stroke-dasharray="1,5" points="8,-32.8 8,-157.8 1226,-157.8 1226,-32.8 8,-32.8"/>
</g>
<g id="clust5" class="cluster">
<title>cluster_GroupMonitorModule_imports</title>
<polygon fill="none" stroke="black" points="900,-40.8 900,-92.8 1218,-92.8 1218,-40.8 900,-40.8"/>
</g>
<g id="clust8" class="cluster">
<title>cluster_GroupMonitorModule_providers</title>
<polygon fill="none" stroke="black" points="369,-40.8 369,-92.8 892,-92.8 892,-40.8 369,-40.8"/>
</g>
<g id="clust2" class="cluster">
<title>cluster_GroupMonitorModule_declarations</title>
<polygon fill="none" stroke="black" points="16,-40.8 16,-92.8 361,-92.8 361,-40.8 16,-40.8"/>
</g>
<!-- GroupMonitorComponent -->
<g id="node1" class="node">
<title>GroupMonitorComponent</title>
<polygon fill="#ffffb3" stroke="black" points="353.49,-84.8 190.51,-84.8 190.51,-48.8 353.49,-48.8 353.49,-84.8"/>
<text text-anchor="middle" x="272" y="-62.6" font-family="Times,serif" font-size="14.00">GroupMonitorComponent</text>
</g>
<!-- GroupMonitorModule -->
<g id="node3" class="node">
<title>GroupMonitorModule</title>
<polygon fill="#8dd3c7" stroke="black" points="718.71,-149.8 715.71,-153.8 694.71,-153.8 691.71,-149.8 577.29,-149.8 577.29,-113.8 718.71,-113.8 718.71,-149.8"/>
<text text-anchor="middle" x="648" y="-127.6" font-family="Times,serif" font-size="14.00">GroupMonitorModule</text>
</g>
<!-- GroupMonitorComponent&#45;&gt;GroupMonitorModule -->
<g id="edge1" class="edge">
<title>GroupMonitorComponent&#45;&gt;GroupMonitorModule</title>
<path fill="none" stroke="black" d="M272,-84.91C272,-104.14 272,-131.8 272,-131.8 272,-131.8 567.28,-131.8 567.28,-131.8"/>
<polygon fill="black" stroke="black" points="567.28,-135.3 577.28,-131.8 567.28,-128.3 567.28,-135.3"/>
</g>
<!-- TestSessionComponent -->
<g id="node2" class="node">
<title>TestSessionComponent</title>
<polygon fill="#ffffb3" stroke="black" points="172.22,-84.8 23.78,-84.8 23.78,-48.8 172.22,-48.8 172.22,-84.8"/>
<text text-anchor="middle" x="98" y="-62.6" font-family="Times,serif" font-size="14.00">TestSessionComponent</text>
</g>
<!-- TestSessionComponent&#45;&gt;GroupMonitorModule -->
<g id="edge2" class="edge">
<title>TestSessionComponent&#45;&gt;GroupMonitorModule</title>
<path fill="none" stroke="black" d="M98,-85.09C98,-107.01 98,-140.8 98,-140.8 98,-140.8 567.22,-140.8 567.22,-140.8"/>
<polygon fill="black" stroke="black" points="567.22,-144.3 577.22,-140.8 567.22,-137.3 567.22,-144.3"/>
</g>
<!-- GroupMonitorRoutingModule -->
<g id="node4" class="node">
<title>GroupMonitorRoutingModule</title>
<polygon fill="#8dd3c7" stroke="black" points="1210.33,-84.8 1207.33,-88.8 1186.33,-88.8 1183.33,-84.8 1023.67,-84.8 1023.67,-48.8 1210.33,-48.8 1210.33,-84.8"/>
<text text-anchor="middle" x="1117" y="-62.6" font-family="Times,serif" font-size="14.00">GroupMonitorRoutingModule</text>
</g>
<!-- GroupMonitorRoutingModule&#45;&gt;GroupMonitorModule -->
<g id="edge3" class="edge">
<title>GroupMonitorRoutingModule&#45;&gt;GroupMonitorModule</title>
<path fill="none" stroke="black" d="M1117,-85.09C1117,-107.01 1117,-140.8 1117,-140.8 1117,-140.8 728.72,-140.8 728.72,-140.8"/>
<polygon fill="black" stroke="black" points="728.72,-137.3 718.72,-140.8 728.72,-144.3 728.72,-137.3"/>
</g>
<!-- SharedModule -->
<g id="node5" class="node">
<title>SharedModule</title>
<polygon fill="#8dd3c7" stroke="black" points="1006.43,-84.8 1003.43,-88.8 982.43,-88.8 979.43,-84.8 907.57,-84.8 907.57,-48.8 1006.43,-48.8 1006.43,-84.8"/>
<text text-anchor="middle" x="957" y="-62.6" font-family="Times,serif" font-size="14.00">SharedModule</text>
</g>
<!-- SharedModule&#45;&gt;GroupMonitorModule -->
<g id="edge4" class="edge">
<title>SharedModule&#45;&gt;GroupMonitorModule</title>
<path fill="none" stroke="black" d="M957,-84.91C957,-104.14 957,-131.8 957,-131.8 957,-131.8 728.89,-131.8 728.89,-131.8"/>
<polygon fill="black" stroke="black" points="728.89,-128.3 718.89,-131.8 728.89,-135.3 728.89,-128.3"/>
</g>
<!-- BackendService -->
<g id="node6" class="node">
<title>BackendService</title>
<ellipse fill="#fdb462" stroke="black" cx="810" cy="-66.8" rx="73.56" ry="18"/>
<text text-anchor="middle" x="810" y="-62.6" font-family="Times,serif" font-size="14.00">BackendService</text>
</g>
<!-- BackendService&#45;&gt;GroupMonitorModule -->
<g id="edge5" class="edge">
<title>BackendService&#45;&gt;GroupMonitorModule</title>
<path fill="none" stroke="black" d="M810,-84.83C810,-101.2 810,-122.8 810,-122.8 810,-122.8 729.06,-122.8 729.06,-122.8"/>
<polygon fill="black" stroke="black" points="729.06,-119.3 719.06,-122.8 729.06,-126.3 729.06,-119.3"/>
</g>
<!-- BookletService -->
<g id="node7" class="node">
<title>BookletService</title>
<ellipse fill="#fdb462" stroke="black" cx="648" cy="-66.8" rx="70.64" ry="18"/>
<text text-anchor="middle" x="648" y="-62.6" font-family="Times,serif" font-size="14.00">BookletService</text>
</g>
<!-- BookletService&#45;&gt;GroupMonitorModule -->
<g id="edge6" class="edge">
<title>BookletService&#45;&gt;GroupMonitorModule</title>
<path fill="none" stroke="black" d="M648,-84.91C648,-84.91 648,-103.79 648,-103.79"/>
<polygon fill="black" stroke="black" points="644.5,-103.79 648,-113.79 651.5,-103.79 644.5,-103.79"/>
</g>
<!-- TestSessionManager -->
<g id="node8" class="node">
<title>TestSessionManager</title>
<ellipse fill="#fdb462" stroke="black" cx="468" cy="-66.8" rx="91.49" ry="18"/>
<text text-anchor="middle" x="468" y="-62.6" font-family="Times,serif" font-size="14.00">TestSessionManager</text>
</g>
<!-- TestSessionManager&#45;&gt;GroupMonitorModule -->
<g id="edge7" class="edge">
<title>TestSessionManager&#45;&gt;GroupMonitorModule</title>
<path fill="none" stroke="black" d="M468,-84.83C468,-101.2 468,-122.8 468,-122.8 468,-122.8 567.38,-122.8 567.38,-122.8"/>
<polygon fill="black" stroke="black" points="567.38,-126.3 577.38,-122.8 567.38,-119.3 567.38,-126.3"/>
</g>
</g>
</svg>
